<svg xmlns="http://www.w3.org/2000/svg" version="1.1"  width="13000" height="13000"><svg xmlns="http://www.w3.org/2000/svg" version="1.1"  width="13000" height="13000"><path d=" M 4477.6948,8528.3504  L 4541.3016,8380.3428  L 4568.6444,8257.7284  L 4638.774,8184.092  L 4741.3596,7982.1716  L 4806,7868.5168  L 4860.9804,7769.6544  L 4787.592,7519.27  L 4879.39,7328.1396  L 5010.1744,7075.4976  L 5160.6524,6976.6388  L 5470.1772,6900.4256  L 5706.9564,6921.4124  L 5912.5896,6922.4084  L 6036.2168,6903.0732  L 6222.6176,6827.6408  L 6468.8752,6814.1412  L 6667.6132,6757.0208  L 6963.826,6584.9328  L 7322.7996,6707.156  L 7622.8228,6824.3044  L 7663.3788,6865.3044  L 7803.71,6683.2472  L 7945.9524,6551.6368 " fill="transparent" stroke="#336666" stroke-width="5" /><circle cx="4477.6948" cy="8528.3504" r="5" stroke="black" fill="#fff" alt="上海市闵行区" /><circle cx="4541.3016" cy="8380.3428" r="5" stroke="black" fill="#fff" alt="江苏省苏州市昆山市" /><circle cx="4568.6444" cy="8257.7284" r="5" stroke="black" fill="#fff" alt="江苏省苏州市相城区" /><circle cx="4638.774" cy="8184.092" r="5" stroke="black" fill="#fff" alt="江苏省无锡市锡山区" /><circle cx="4741.3596" cy="7982.1716" r="5" stroke="black" fill="#fff" alt="江苏省常州市新北区" /><circle cx="4806" cy="7868.5168" r="5" stroke="black" fill="#fff" alt="江苏省镇江市丹阳市" /><circle cx="4860.9804" cy="7769.6544" r="5" stroke="black" fill="#fff" alt="江苏省镇江市丹徒区" /><circle cx="4787.592" cy="7519.27" r="5" stroke="black" fill="#fff" alt="江苏省南京市雨花台区" /><circle cx="4879.39" cy="7328.1396" r="5" stroke="black" fill="#fff" alt="安徽省滁州市南谯区" /><circle cx="5010.1744" cy="7075.4976" r="5" stroke="black" fill="#fff" alt="安徽省滁州市定远县" /><circle cx="5160.6524" cy="6976.6388" r="5" stroke="black" fill="#fff" alt="安徽省蚌埠市龙子湖区" /><circle cx="5470.1772" cy="6900.4256" r="5" stroke="black" fill="#fff" alt="安徽省宿州市埇桥区" /><circle cx="5706.9564" cy="6921.4124" r="5" stroke="black" fill="#fff" alt="江苏省徐州市鼓楼区" /><circle cx="5912.5896" cy="6922.4084" r="5" stroke="black" fill="#fff" alt="山东省枣庄市薛城区" /><circle cx="6036.2168" cy="6903.0732" r="5" stroke="black" fill="#fff" alt="山东省枣庄市滕州市" /><circle cx="6222.6176" cy="6827.6408" r="5" stroke="black" fill="#fff" alt="山东省济宁市曲阜市" /><circle cx="6468.8752" cy="6814.1412" r="5" stroke="black" fill="#fff" alt="山东省泰安市岱岳区" /><circle cx="6667.6132" cy="6757.0208" r="5" stroke="black" fill="#fff" alt="山东省济南市槐荫区" /><circle cx="6963.826" cy="6584.9328" r="5" stroke="black" fill="#fff" alt="山东省德州市德城区" /><circle cx="7322.7996" cy="6707.156" r="5" stroke="black" fill="#fff" alt="河北省沧州市沧县" /><circle cx="7622.8228" cy="6824.3044" r="5" stroke="black" fill="#fff" alt="天津市西青区" /><circle cx="7663.3788" cy="6865.3044" r="5" stroke="black" fill="#fff" alt="天津市红桥区" /><circle cx="7803.71" cy="6683.2472" r="5" stroke="black" fill="#fff" alt="河北省廊坊市安次区" /><circle cx="7945.9524" cy="6551.6368" r="5" stroke="black" fill="#fff" alt="北京市丰台区" /></svg><svg xmlns="http://www.w3.org/2000/svg" version="1.1"  width="13000" height="13000"><path d=" M 1195.5512,5307.7848  L 1350.8628,5281.8584  L 1477.5596,5253.8276  L 1663.7816,5340.9176  L 1900.0584,5406.1132  L 2052.0544,5339.0076  L 2294.346,5188.0024  L 2565.9984,5115.2796  L 2758.5784,5083.8704  L 2899.1096,5115.7624  L 3116.378,5227.9632  L 3258.6996,5225.4532  L 3498.3704,5257.626  L 3746.6332,5283.0588  L 3894.2828,5560.2312  L 3959.5516,5720.4896  L 4098.476,5734.052  L 4242.9912,5769.7008  L 4318.6428,5723.132  L 4634.5592,5688.7368  L 4857.5632,5664.1716  L 4994.97,5626.3  L 5200.1844,5591.4496  L 5428.968,5585.3088  L 5613.7332,5535.85  L 5760.3992,5492.9076  L 5903.7848,5511.5404  L 6125.7296,5591.6004  L 6282.6368,5719.582  L 6433.6112,5781.0912  L 6647.8896,5823.5584  L 6826.6808,5805.2248  L 7051.8036,5812.4608  L 7204.06,5793.8328  L 7305.622,5872.896  L 7403.3032,6030.048  L 7545.6428,6240.5036  L 7730.6084,6349.5032  L 7783.864,6421.2828  L 7957.5496,6529.3176 " fill="transparent" stroke="#00FF66" stroke-width="5" /><circle cx="1195.5512" cy="5307.7848" r="5" stroke="black" fill="#fff" alt="广东省广州市番禺区" /><circle cx="1350.8628" cy="5281.8584" r="5" stroke="black" fill="#fff" alt="广东省广州市花都区" /><circle cx="1477.5596" cy="5253.8276" r="5" stroke="black" fill="#fff" alt="广东省清远市清城区" /><circle cx="1663.7816" cy="5340.9176" r="5" stroke="black" fill="#fff" alt="广东省清远市英德市" /><circle cx="1900.0584" cy="5406.1132" r="5" stroke="black" fill="#fff" alt="广东省韶关市武江区" /><circle cx="2052.0544" cy="5339.0076" r="5" stroke="black" fill="#fff" alt="广东省韶关市乐昌市" /><circle cx="2294.346" cy="5188.0024" r="5" stroke="black" fill="#fff" alt="湖南省郴州市北湖区" /><circle cx="2565.9984" cy="5115.2796" r="5" stroke="black" fill="#fff" alt="湖南省衡阳市耒阳市" /><circle cx="2758.5784" cy="5083.8704" r="5" stroke="black" fill="#fff" alt="湖南省衡阳市珠晖区" /><circle cx="2899.1096" cy="5115.7624" r="5" stroke="black" fill="#fff" alt="湖南省衡阳市衡山县" /><circle cx="3116.378" cy="5227.9632" r="5" stroke="black" fill="#fff" alt="湖南省株洲市天元区" /><circle cx="3258.6996" cy="5225.4532" r="5" stroke="black" fill="#fff" alt="湖南省长沙市雨花区" /><circle cx="3498.3704" cy="5257.626" r="5" stroke="black" fill="#fff" alt="湖南省岳阳市汨罗市" /><circle cx="3746.6332" cy="5283.0588" r="5" stroke="black" fill="#fff" alt="湖南省岳阳市岳阳楼区" /><circle cx="3894.2828" cy="5560.2312" r="5" stroke="black" fill="#fff" alt="湖北省咸宁市赤壁市" /><circle cx="3959.5516" cy="5720.4896" r="5" stroke="black" fill="#fff" alt="湖北省咸宁市咸安区" /><circle cx="4098.476" cy="5734.052" r="5" stroke="black" fill="#fff" alt="湖北省武汉市江夏区" /><circle cx="4242.9912" cy="5769.7008" r="5" stroke="black" fill="#fff" alt="湖北省武汉市洪山区" /><circle cx="4318.6428" cy="5723.132" r="5" stroke="black" fill="#fff" alt="湖北省武汉市黄陂区" /><circle cx="4634.5592" cy="5688.7368" r="5" stroke="black" fill="#fff" alt="湖北省孝感市大悟县" /><circle cx="4857.5632" cy="5664.1716" r="5" stroke="black" fill="#fff" alt="河南省信阳市平桥区" /><circle cx="4994.97" cy="5626.3" r="5" stroke="black" fill="#fff" alt="河南省信阳市平桥区" /><circle cx="5200.1844" cy="5591.4496" r="5" stroke="black" fill="#fff" alt="河南省驻马店市驿城区" /><circle cx="5428.968" cy="5585.3088" r="5" stroke="black" fill="#fff" alt="河南省漯河市源汇区" /><circle cx="5613.7332" cy="5535.85" r="5" stroke="black" fill="#fff" alt="河南省许昌市许昌县" /><circle cx="5760.3992" cy="5492.9076" r="5" stroke="black" fill="#fff" alt="河南省郑州市新郑市" /><circle cx="5903.7848" cy="5511.5404" r="5" stroke="black" fill="#fff" alt="河南省郑州市金水区" /><circle cx="6125.7296" cy="5591.6004" r="5" stroke="black" fill="#fff" alt="河南省新乡市牧野区" /><circle cx="6282.6368" cy="5719.582" r="5" stroke="black" fill="#fff" alt="河南省鹤壁市淇滨区" /><circle cx="6433.6112" cy="5781.0912" r="5" stroke="black" fill="#fff" alt="河南省安阳市安阳县" /><circle cx="6647.8896" cy="5823.5584" r="5" stroke="black" fill="#fff" alt="河北省邯郸市邯郸县" /><circle cx="6826.6808" cy="5805.2248" r="5" stroke="black" fill="#fff" alt="河北省邢台市邢台县" /><circle cx="7051.8036" cy="5812.4608" r="5" stroke="black" fill="#fff" alt="河北省石家庄市高邑县" /><circle cx="7204.06" cy="5793.8328" r="5" stroke="black" fill="#fff" alt="河北省石家庄市桥西区" /><circle cx="7305.622" cy="5872.896" r="5" stroke="black" fill="#fff" alt="河北省石家庄市正定县" /><circle cx="7403.3032" cy="6030.048" r="5" stroke="black" fill="#fff" alt="河北省保定市定州市" /><circle cx="7545.6428" cy="6240.5036" r="5" stroke="black" fill="#fff" alt="河北省保定市清苑县" /><circle cx="7730.6084" cy="6349.5032" r="5" stroke="black" fill="#fff" alt="河北省保定市高碑店市" /><circle cx="7783.864" cy="6421.2828" r="5" stroke="black" fill="#fff" alt="河北省保定市涿州市" /><circle cx="7957.5496" cy="6529.3176" r="5" stroke="black" fill="#fff" alt="北京市丰台区" /></svg><svg xmlns="http://www.w3.org/2000/svg" version="1.1"  width="13000" height="13000"><path d=" M 7654.1932,6883.6808  L 7748.926,6806.4836  L 7963.9784,6662.574  L 7945.9524,6551.6368 " fill="transparent" stroke="#99FF66" stroke-width="5" /><circle cx="7654.1932" cy="6883.6808" r="5" stroke="black" fill="#fff" alt="天津市河北区" /><circle cx="7748.926" cy="6806.4836" r="5" stroke="black" fill="#fff" alt="天津市武清区" /><circle cx="7963.9784" cy="6662.574" r="5" stroke="black" fill="#fff" alt="北京市通州区" /><circle cx="7945.9524" cy="6551.6368" r="5" stroke="black" fill="#fff" alt="北京市丰台区" /></svg><svg xmlns="http://www.w3.org/2000/svg" version="1.1"  width="13000" height="13000"><path d=" M 5749.6308,3575.6388  L 5736.6272,3576.0696  L 5814.1248,3792.4728  L 5832.6724,4039.4764  L 5830.986,4275.5644  L 5899.4588,4464.0692  L 5874.16,4709.526  L 5837.526,4983.3348  L 5868.3336,5166.5912  L 5898.1956,5369.9764  L 5898.6056,5464.3156  L 5903.7848,5511.5404 " fill="transparent" stroke="#CC6633" stroke-width="5" /><circle cx="5749.6308" cy="3575.6388" r="5" stroke="black" fill="#fff" alt="陕西省西安市未央区" /><circle cx="5736.6272" cy="3576.0696" r="5" stroke="black" fill="#fff" alt="陕西省西安市临潼区" /><circle cx="5814.1248" cy="3792.4728" r="5" stroke="black" fill="#fff" alt="陕西省渭南市临渭区" /><circle cx="5832.6724" cy="4039.4764" r="5" stroke="black" fill="#fff" alt="陕西省渭南市华阴市" /><circle cx="5830.986" cy="4275.5644" r="5" stroke="black" fill="#fff" alt="河南省三门峡市灵宝市" /><circle cx="5899.4588" cy="4464.0692" r="5" stroke="black" fill="#fff" alt="河南省三门峡市陕州区" /><circle cx="5874.16" cy="4709.526" r="5" stroke="black" fill="#fff" alt="河南省三门峡市渑池县" /><circle cx="5837.526" cy="4983.3348" r="5" stroke="black" fill="#fff" alt="河南省洛阳市洛龙区" /><circle cx="5868.3336" cy="5166.5912" r="5" stroke="black" fill="#fff" alt="河南省郑州市巩义市" /><circle cx="5898.1956" cy="5369.9764" r="5" stroke="black" fill="#fff" alt="河南省郑州市荥阳市" /><circle cx="5898.6056" cy="5464.3156" r="5" stroke="black" fill="#fff" alt="河南省郑州市二七区" /><circle cx="5903.7848" cy="5511.5404" r="5" stroke="black" fill="#fff" alt="河南省郑州市金水区" /></svg><svg xmlns="http://www.w3.org/2000/svg" version="1.1"  width="13000" height="13000"><path d=" M 4116.4356,8085.2164  L 4217.8444,8024.0996  L 4344.8396,8009.6888  L 4416.686,7989.6328  L 4524.8872,7925.4816  L 4554.3796,7801.2128  L 4623.5232,7709.6472  L 4660.45,7611.3184  L 4733.1176,7592.0216  L 4774.1896,7559.4544  L 4787.592,7519.27 " fill="transparent" stroke="#6699CC" stroke-width="5" /><circle cx="4116.4356" cy="8085.2164" r="5" stroke="black" fill="#fff" alt="浙江省杭州市江干区" /><circle cx="4217.8444" cy="8024.0996" r="5" stroke="black" fill="#fff" alt="浙江省湖州市德清县" /><circle cx="4344.8396" cy="8009.6888" r="5" stroke="black" fill="#fff" alt="浙江省湖州市吴兴区" /><circle cx="4416.686" cy="7989.6328" r="5" stroke="black" fill="#fff" alt="浙江省湖州市长兴县" /><circle cx="4524.8872" cy="7925.4816" r="5" stroke="black" fill="#fff" alt="江苏省无锡市宜兴市" /><circle cx="4554.3796" cy="7801.2128" r="5" stroke="black" fill="#fff" alt="江苏省常州市溧阳市" /><circle cx="4623.5232" cy="7709.6472" r="5" stroke="black" fill="#fff" alt="江苏省常州市溧阳市" /><circle cx="4660.45" cy="7611.3184" r="5" stroke="black" fill="#fff" alt="江苏省南京市溧水区" /><circle cx="4733.1176" cy="7592.0216" r="5" stroke="black" fill="#fff" alt="江苏省镇江市句容市" /><circle cx="4774.1896" cy="7559.4544" r="5" stroke="black" fill="#fff" alt="江苏省南京市江宁区" /><circle cx="4787.592" cy="7519.27" r="5" stroke="black" fill="#fff" alt="江苏省南京市雨花台区" /></svg><svg xmlns="http://www.w3.org/2000/svg" version="1.1"  width="13000" height="13000"><path d=" M 1948.1504,1144.9668  L 2129.9444,1215.9128  L 2146.8772,1360.1224  L 2233.9784,1510.602  L 2284.932,1708.0564  L 2288.318,1786.9788  L 2313.654,1981.2252  L 2376.1512,2248.8212  L 2495.424,2372.5836  L 2553.6712,2502.9732  L 2659.0644,2652.0612  L 2647.7128,2669.6924  L 2666.6908,2697.9416  L 2622.8284,2893.1556  L 2606.4184,3154.926  L 2679.7424,3254.4264  L 2785.8484,3460.5468  L 2912.9656,3592.4128  L 2952.1004,3650.4376  L 2977.3996,3873.8516  L 3004.9784,3997.1588  L 3041.8908,4237.14  L 3062.5168,4463.9444  L 3029.232,4601.6616  L 3065.3264,4805.3568  L 3155.1376,5018.9972  L 3185.8756,5176.952  L 3258.6996,5225.4532  L 3085.95,5431.2004  L 3073.2944,5539.1796  L 3115.4312,5774.4856  L 3164.5036,5958.6896  L 3291.0604,6164.748  L 3449.0944,6316.924  L 3335.282,6493.914  L 3304.2012,6646.5704  L 3322.276,6815.4892  L 3364.36,6978.07  L 3396.1844,7202.5908  L 3468.8684,7301.7228  L 3508.7784,7457.4804  L 3569.7804,7552.3724  L 3601.3012,7666.308  L 3644.0652,7854.2104  L 3739.7608,8056.3648  L 3891.0736,8074.1744  L 4068.8272,8117.3988  L 4116.4356,8085.2164  L 4152.5332,8118.7264  L 4175.5776,8156.6156  L 4214.9744,8226.9856  L 4276.386,8319.912  L 4315.1632,8374.2764  L 4357.6872,8435.8316  L 4393.4068,8492.1356  L 4477.6948,8528.3504 " fill="transparent" stroke="#9900FF" stroke-width="5" /><circle cx="1948.1504" cy="1144.9668" r="5" stroke="black" fill="#fff" alt="云南省昆明市呈贡县" /><circle cx="2129.9444" cy="1215.9128" r="5" stroke="black" fill="#fff" alt="云南省昆明市嵩明县" /><circle cx="2146.8772" cy="1360.1224" r="5" stroke="black" fill="#fff" alt="云南省曲靖市马龙县" /><circle cx="2233.9784" cy="1510.602" r="5" stroke="black" fill="#fff" alt="云南省曲靖市沾益区" /><circle cx="2284.932" cy="1708.0564" r="5" stroke="black" fill="#fff" alt="云南省曲靖市富源县" /><circle cx="2288.318" cy="1786.9788" r="5" stroke="black" fill="#fff" alt="贵州省六盘水市盘县" /><circle cx="2313.654" cy="1981.2252" r="5" stroke="black" fill="#fff" alt="贵州省黔西南布依族苗族自治州普安县" /><circle cx="2376.1512" cy="2248.8212" r="5" stroke="black" fill="#fff" alt="贵州省安顺市关岭布依族苗族自治县" /><circle cx="2495.424" cy="2372.5836" r="5" stroke="black" fill="#fff" alt="贵州省安顺市西秀区" /><circle cx="2553.6712" cy="2502.9732" r="5" stroke="black" fill="#fff" alt="贵州省安顺市平坝区" /><circle cx="2659.0644" cy="2652.0612" r="5" stroke="black" fill="#fff" alt="贵州省贵阳市清镇市" /><circle cx="2647.7128" cy="2669.6924" r="5" stroke="black" fill="#fff" alt="贵州省贵阳市观山湖区" /><circle cx="2666.6908" cy="2697.9416" r="5" stroke="black" fill="#fff" alt="贵州省贵阳市乌当区" /><circle cx="2622.8284" cy="2893.1556" r="5" stroke="black" fill="#fff" alt="贵州省黔南布依族苗族自治州贵定县" /><circle cx="2606.4184" cy="3154.926" r="5" stroke="black" fill="#fff" alt="贵州省黔东南苗族侗族自治州凯里市" /><circle cx="2679.7424" cy="3254.4264" r="5" stroke="black" fill="#fff" alt="贵州省黔东南苗族侗族自治州台江县" /><circle cx="2785.8484" cy="3460.5468" r="5" stroke="black" fill="#fff" alt="贵州省黔东南苗族侗族自治州三穗县" /><circle cx="2912.9656" cy="3592.4128" r="5" stroke="black" fill="#fff" alt="贵州省铜仁地区玉屏侗族自治县" /><circle cx="2952.1004" cy="3650.4376" r="5" stroke="black" fill="#fff" alt="湖南省怀化市新晃侗族自治县" /><circle cx="2977.3996" cy="3873.8516" r="5" stroke="black" fill="#fff" alt="湖南省怀化市芷江侗族自治县" /><circle cx="3004.9784" cy="3997.1588" r="5" stroke="black" fill="#fff" alt="湖南省怀化市鹤城区" /><circle cx="3041.8908" cy="4237.14" r="5" stroke="black" fill="#fff" alt="湖南省怀化市溆浦县" /><circle cx="3062.5168" cy="4463.9444" r="5" stroke="black" fill="#fff" alt="湖南省娄底市新化县" /><circle cx="3029.232" cy="4601.6616" r="5" stroke="black" fill="#fff" alt="湖南省邵阳市新邵县" /><circle cx="3065.3264" cy="4805.3568" r="5" stroke="black" fill="#fff" alt="湖南省娄底市娄星区" /><circle cx="3155.1376" cy="5018.9972" r="5" stroke="black" fill="#fff" alt="湖南省湘潭市韶山市" /><circle cx="3185.8756" cy="5176.952" r="5" stroke="black" fill="#fff" alt="湖南省湘潭市湘潭县" /><circle cx="3258.6996" cy="5225.4532" r="5" stroke="black" fill="#fff" alt="湖南省长沙市雨花区" /><circle cx="3085.95" cy="5431.2004" r="5" stroke="black" fill="#fff" alt="湖南省株洲市醴陵市" /><circle cx="3073.2944" cy="5539.1796" r="5" stroke="black" fill="#fff" alt="江西省萍乡市上栗县" /><circle cx="3115.4312" cy="5774.4856" r="5" stroke="black" fill="#fff" alt="江西省宜春市袁州区" /><circle cx="3164.5036" cy="5958.6896" r="5" stroke="black" fill="#fff" alt="江西省新余市渝水区" /><circle cx="3291.0604" cy="6164.748" r="5" stroke="black" fill="#fff" alt="江西省宜春市高安市" /><circle cx="3449.0944" cy="6316.924" r="5" stroke="black" fill="#fff" alt="江西省南昌市新建县" /><circle cx="3335.282" cy="6493.914" r="5" stroke="black" fill="#fff" alt="江西省南昌市进贤县" /><circle cx="3304.2012" cy="6646.5704" r="5" stroke="black" fill="#fff" alt="江西省抚州市东乡区" /><circle cx="3322.276" cy="6815.4892" r="5" stroke="black" fill="#fff" alt="江西省鹰潭市贵溪市" /><circle cx="3364.36" cy="6978.07" r="5" stroke="black" fill="#fff" alt="江西省上饶市弋阳县" /><circle cx="3396.1844" cy="7202.5908" r="5" stroke="black" fill="#fff" alt="江西省上饶市信州区" /><circle cx="3468.8684" cy="7301.7228" r="5" stroke="black" fill="#fff" alt="江西省上饶市玉山县" /><circle cx="3508.7784" cy="7457.4804" r="5" stroke="black" fill="#fff" alt="浙江省衢州市江山市" /><circle cx="3569.7804" cy="7552.3724" r="5" stroke="black" fill="#fff" alt="浙江省衢州市柯城区" /><circle cx="3601.3012" cy="7666.308" r="5" stroke="black" fill="#fff" alt="浙江省衢州市龙游县" /><circle cx="3644.0652" cy="7854.2104" r="5" stroke="black" fill="#fff" alt="浙江省金华市婺城区" /><circle cx="3739.7608" cy="8056.3648" r="5" stroke="black" fill="#fff" alt="浙江省金华市义乌市" /><circle cx="3891.0736" cy="8074.1744" r="5" stroke="black" fill="#fff" alt="浙江省绍兴市诸暨市" /><circle cx="4068.8272" cy="8117.3988" r="5" stroke="black" fill="#fff" alt="浙江省杭州市萧山区" /><circle cx="4116.4356" cy="8085.2164" r="5" stroke="black" fill="#fff" alt="浙江省杭州市江干区" /><circle cx="4152.5332" cy="8118.7264" r="5" stroke="black" fill="#fff" alt="浙江省杭州市余杭区" /><circle cx="4175.5776" cy="8156.6156" r="5" stroke="black" fill="#fff" alt="浙江省嘉兴市海宁市" /><circle cx="4214.9744" cy="8226.9856" r="5" stroke="black" fill="#fff" alt="浙江省嘉兴市桐乡市" /><circle cx="4276.386" cy="8319.912" r="5" stroke="black" fill="#fff" alt="浙江省嘉兴市南湖区" /><circle cx="4315.1632" cy="8374.2764" r="5" stroke="black" fill="#fff" alt="浙江省嘉兴市嘉善县" /><circle cx="4357.6872" cy="8435.8316" r="5" stroke="black" fill="#fff" alt="上海市金山区" /><circle cx="4393.4068" cy="8492.1356" r="5" stroke="black" fill="#fff" alt="上海市松江区" /><circle cx="4477.6948" cy="8528.3504" r="5" stroke="black" fill="#fff" alt="上海市闵行区" /></svg><svg xmlns="http://www.w3.org/2000/svg" version="1.1"  width="13000" height="13000"><path d=" M 2394.312,7756.0084  L 2477.7584,7826.6092  L 2582.3048,7830.8232  L 2664.2444,7810.5196  L 2733.6476,7886.9132  L 2763.478,8013.29  L 2839.8112,8100.6528  L 2929.7916,8086.7912  L 3011.1464,8164.7492  L 3050.2816,8218.204  L 3112.348,8255.3768  L 3186.4052,8234.1296  L 3227.6444,8278.1364  L 3245.9324,8385.8708  L 3278.7916,8396.6156  L 3336.6668,8460.8344  L 3391.6488,8530.1084  L 3416.2792,8529.624  L 3474.3,8515.622  L 3543.3828,8458.0188  L 3622.0632,8545.2836  L 3734.6648,8568.0712  L 3862.0572,8562.798  L 3909.5324,8639.6648  L 3939.2888,8634.1324  L 3944.8328,8614.7796  L 3969.406,8614.1908  L 4039.3956,8467.294  L 4013.2484,8347.2488  L 4039.7336,8215.2248  L 4068.8272,8117.3988  L 4116.4356,8085.2164 " fill="transparent" stroke="#669966" stroke-width="5" /><circle cx="2394.312" cy="7756.0084" r="5" stroke="black" fill="#fff" alt="福建省福州市仓山区" /><circle cx="2477.7584" cy="7826.6092" r="5" stroke="black" fill="#fff" alt="福建省福州市连江县" /><circle cx="2582.3048" cy="7830.8232" r="5" stroke="black" fill="#fff" alt="福建省福州市罗源县" /><circle cx="2664.2444" cy="7810.5196" r="5" stroke="black" fill="#fff" alt="福建省宁德市蕉城区" /><circle cx="2733.6476" cy="7886.9132" r="5" stroke="black" fill="#fff" alt="福建省宁德市福安市" /><circle cx="2763.478" cy="8013.29" r="5" stroke="black" fill="#fff" alt="福建省宁德市霞浦县" /><circle cx="2839.8112" cy="8100.6528" r="5" stroke="black" fill="#fff" alt="福建省宁德市福鼎市" /><circle cx="2929.7916" cy="8086.7912" r="5" stroke="black" fill="#fff" alt="福建省宁德市福鼎市" /><circle cx="3011.1464" cy="8164.7492" r="5" stroke="black" fill="#fff" alt="浙江省温州市苍南县" /><circle cx="3050.2816" cy="8218.204" r="5" stroke="black" fill="#fff" alt="浙江省温州市平阳县" /><circle cx="3112.348" cy="8255.3768" r="5" stroke="black" fill="#fff" alt="浙江省温州市瑞安市" /><circle cx="3186.4052" cy="8234.1296" r="5" stroke="black" fill="#fff" alt="浙江省温州市瓯海区" /><circle cx="3227.6444" cy="8278.1364" r="5" stroke="black" fill="#fff" alt="浙江省温州市永嘉县" /><circle cx="3245.9324" cy="8385.8708" r="5" stroke="black" fill="#fff" alt="浙江省温州市乐清市" /><circle cx="3278.7916" cy="8396.6156" r="5" stroke="black" fill="#fff" alt="浙江省温州市乐清市" /><circle cx="3336.6668" cy="8460.8344" r="5" stroke="black" fill="#fff" alt="浙江省温州市乐清市" /><circle cx="3391.6488" cy="8530.1084" r="5" stroke="black" fill="#fff" alt="浙江省台州市温岭市" /><circle cx="3416.2792" cy="8529.624" r="5" stroke="black" fill="#fff" alt="浙江省台州市路桥区" /><circle cx="3474.3" cy="8515.622" r="5" stroke="black" fill="#fff" alt="浙江省台州市黄岩区" /><circle cx="3543.3828" cy="8458.0188" r="5" stroke="black" fill="#fff" alt="浙江省台州市临海市" /><circle cx="3622.0632" cy="8545.2836" r="5" stroke="black" fill="#fff" alt="浙江省台州市三门县" /><circle cx="3734.6648" cy="8568.0712" r="5" stroke="black" fill="#fff" alt="浙江省宁波市宁海县" /><circle cx="3862.0572" cy="8562.798" r="5" stroke="black" fill="#fff" alt="浙江省宁波市奉化市" /><circle cx="3909.5324" cy="8639.6648" r="5" stroke="black" fill="#fff" alt="浙江省宁波市鄞州区" /><circle cx="3939.2888" cy="8634.1324" r="5" stroke="black" fill="#fff" alt="浙江省宁波市鄞州区" /><circle cx="3944.8328" cy="8614.7796" r="5" stroke="black" fill="#fff" alt="浙江省宁波市海曙区" /><circle cx="3969.406" cy="8614.1908" r="5" stroke="black" fill="#fff" alt="浙江省宁波市江北区" /><circle cx="4039.3956" cy="8467.294" r="5" stroke="black" fill="#fff" alt="浙江省宁波市余姚市" /><circle cx="4013.2484" cy="8347.2488" r="5" stroke="black" fill="#fff" alt="浙江省绍兴市上虞市" /><circle cx="4039.7336" cy="8215.2248" r="5" stroke="black" fill="#fff" alt="浙江省绍兴市越城区" /><circle cx="4068.8272" cy="8117.3988" r="5" stroke="black" fill="#fff" alt="浙江省杭州市萧山区" /><circle cx="4116.4356" cy="8085.2164" r="5" stroke="black" fill="#fff" alt="浙江省杭州市江干区" /></svg><svg xmlns="http://www.w3.org/2000/svg" version="1.1"  width="13000" height="13000"><path d=" M 4834.5488,7518.666  L 4849.082,7565.2636  L 4858.1748,7581.22  L 4859.676,7622.2824  L 4868.3304,7676.374  L 4867.6036,7723.04  L 4879.1972,7773.068  L 4845.9832,7808.1076  L 4800.8416,7837.0516  L 4778.2064,7863.1892  L 4758.0716,7896.9196  L 4680.4752,7976.9748  L 4723.7044,7964.3268  L 4730.516,8010.8796  L 4689.1516,8027.1068  L 4680.0032,8044.6344  L 4668.0056,8080.5048  L 4635.192,8122.5436  L 4599.1228,8156.8828  L 4567.3212,8181.3536  L 4548.7852,8209.9744  L 4529.6144,8289.3372  L 4536.4708,8284.2852  L 4529.6144,8289.3372  L 4552.242,8344.7636  L 4541.3016,8380.3428  L 4519.516,8441.7628  L 4525.784,8463.322  L 4477.6948,8528.3504  L 4512.6236,8523.7016  L 4505.0884,8561.0912  L 4499.7808,8582.2144 " fill="transparent" stroke="#000033" stroke-width="5" /><circle cx="4834.5488" cy="7518.666" r="5" stroke="black" fill="#fff" alt="江苏省南京市玄武区" /><circle cx="4849.082" cy="7565.2636" r="5" stroke="black" fill="#fff" alt="江苏省南京市栖霞区" /><circle cx="4858.1748" cy="7581.22" r="5" stroke="black" fill="#fff" alt="江苏省南京市栖霞区" /><circle cx="4859.676" cy="7622.2824" r="5" stroke="black" fill="#fff" alt="江苏省镇江市句容市" /><circle cx="4868.3304" cy="7676.374" r="5" stroke="black" fill="#fff" alt="江苏省镇江市句容市" /><circle cx="4867.6036" cy="7723.04" r="5" stroke="black" fill="#fff" alt="江苏省镇江市丹徒区" /><circle cx="4879.1972" cy="7773.068" r="5" stroke="black" fill="#fff" alt="江苏省镇江市京口区" /><circle cx="4845.9832" cy="7808.1076" r="5" stroke="black" fill="#fff" alt="江苏省镇江市丹徒区" /><circle cx="4800.8416" cy="7837.0516" r="5" stroke="black" fill="#fff" alt="江苏省镇江市丹阳市" /><circle cx="4778.2064" cy="7863.1892" r="5" stroke="black" fill="#fff" alt="江苏省镇江市丹阳市" /><circle cx="4758.0716" cy="7896.9196" r="5" stroke="black" fill="#fff" alt="江苏省镇江市丹阳市" /><circle cx="4680.4752" cy="7976.9748" r="5" stroke="black" fill="#fff" alt="江苏省常州市武进区" /><circle cx="4723.7044" cy="7964.3268" r="5" stroke="black" fill="#fff" alt="江苏省常州市钟楼区" /><circle cx="4730.516" cy="8010.8796" r="5" stroke="black" fill="#fff" alt="江苏省常州市天宁区" /><circle cx="4689.1516" cy="8027.1068" r="5" stroke="black" fill="#fff" alt="江苏省常州市戚墅堰区" /><circle cx="4680.0032" cy="8044.6344" r="5" stroke="black" fill="#fff" alt="江苏省常州市武进区" /><circle cx="4668.0056" cy="8080.5048" r="5" stroke="black" fill="#fff" alt="江苏省无锡市惠山区" /><circle cx="4635.192" cy="8122.5436" r="5" stroke="black" fill="#fff" alt="江苏省无锡市崇安区" /><circle cx="4599.1228" cy="8156.8828" r="5" stroke="black" fill="#fff" alt="江苏省无锡市滨湖区" /><circle cx="4567.3212" cy="8181.3536" r="5" stroke="black" fill="#fff" alt="江苏省苏州市相城区" /><circle cx="4548.7852" cy="8209.9744" r="5" stroke="black" fill="#fff" alt="江苏省苏州市虎丘区" /><circle cx="4529.6144" cy="8289.3372" r="5" stroke="black" fill="#fff" alt="江苏省苏州市苏州工业园区" /><circle cx="4536.4708" cy="8284.2852" r="5" stroke="black" fill="#fff" alt="江苏省苏州市苏州工业园区" /><circle cx="4529.6144" cy="8289.3372" r="5" stroke="black" fill="#fff" alt="江苏省苏州市苏州工业园区" /><circle cx="4552.242" cy="8344.7636" r="5" stroke="black" fill="#fff" alt="江苏省苏州市昆山市" /><circle cx="4541.3016" cy="8380.3428" r="5" stroke="black" fill="#fff" alt="江苏省苏州市昆山市" /><circle cx="4519.516" cy="8441.7628" r="5" stroke="black" fill="#fff" alt="江苏省苏州市昆山市" /><circle cx="4525.784" cy="8463.322" r="5" stroke="black" fill="#fff" alt="上海市嘉定区" /><circle cx="4477.6948" cy="8528.3504" r="5" stroke="black" fill="#fff" alt="上海市闵行区" /><circle cx="4512.6236" cy="8523.7016" r="5" stroke="black" fill="#fff" alt="上海市嘉定区" /><circle cx="4505.0884" cy="8561.0912" r="5" stroke="black" fill="#fff" alt="上海市普陀区" /><circle cx="4499.7808" cy="8582.2144" r="5" stroke="black" fill="#fff" alt="上海市闸北区" /></svg><svg xmlns="http://www.w3.org/2000/svg" version="1.1"  width="13000" height="13000"><path d=" M 5177.3884,6951.298  L 5160.6524,6976.6388  L 5058.4868,6860.0192  L 4993.1648,6867.5564  L 4879.058,6886.1056  L 4990.2052,6868.276  L 4803.212,6897.904  L 4753.9136,6926.672 " fill="transparent" stroke="#990066" stroke-width="5" /><circle cx="5177.3884" cy="6951.298" r="5" stroke="black" fill="#fff" alt="安徽省蚌埠市龙子湖区" /><circle cx="5160.6524" cy="6976.6388" r="5" stroke="black" fill="#fff" alt="安徽省蚌埠市龙子湖区" /><circle cx="5058.4868" cy="6860.0192" r="5" stroke="black" fill="#fff" alt="安徽省淮南市大通区" /><circle cx="4993.1648" cy="6867.5564" r="5" stroke="black" fill="#fff" alt="安徽省合肥市长丰县" /><circle cx="4879.058" cy="6886.1056" r="5" stroke="black" fill="#fff" alt="安徽省合肥市长丰县" /><circle cx="4990.2052" cy="6868.276" r="5" stroke="black" fill="#fff" alt="安徽省合肥市长丰县" /><circle cx="4803.212" cy="6897.904" r="5" stroke="black" fill="#fff" alt="安徽省合肥市北城新区" /><circle cx="4753.9136" cy="6926.672" r="5" stroke="black" fill="#fff" alt="安徽省合肥市瑶海区" /></svg><svg xmlns="http://www.w3.org/2000/svg" version="1.1"  width="13000" height="13000"><path d=" M 7568.9032,8653.2372  L 7606.71,8642.9664  L 7732.0372,8725.1248  L 7862.832,8735.3664  L 8075.176,8837.7392  L 8161.9168,8909.5136  L 8250.1684,8970.9724  L 8365.7716,9063.674  L 8427.5636,9179.7192  L 8512.7516,9267.5992  L 8667.5212,9362.8276  L 8718.0584,9357.4176  L 8727.7528,9374.3784  L 8893.298,9468.9268  L 9019.8768,9567.3936  L 9111.2484,9626.6352  L 9255.4456,9775.2384  L 9389.1384,9926.3312  L 9550.7684,10080.444  L 9564.5668,10129.8148  L 9818.3452,10270.9572  L 10003.0452,10401.3268  L 10170.7424,10508.696  L 10282.9284,10630.7832 " fill="transparent" stroke="#996600" stroke-width="5" /><circle cx="7568.9032" cy="8653.2372" r="5" stroke="black" fill="#fff" alt="辽宁省大连市中山区" /><circle cx="7606.71" cy="8642.9664" r="5" stroke="black" fill="#fff" alt="辽宁省大连市" /><circle cx="7732.0372" cy="8725.1248" r="5" stroke="black" fill="#fff" alt="辽宁省大连市普湾新区" /><circle cx="7862.832" cy="8735.3664" r="5" stroke="black" fill="#fff" alt="辽宁省大连市瓦房店市" /><circle cx="8075.176" cy="8837.7392" r="5" stroke="black" fill="#fff" alt="辽宁省营口市鲅鱼圈区" /><circle cx="8161.9168" cy="8909.5136" r="5" stroke="black" fill="#fff" alt="辽宁省营口市盖州市" /><circle cx="8250.1684" cy="8970.9724" r="5" stroke="black" fill="#fff" alt="辽宁省营口市老边区" /><circle cx="8365.7716" cy="9063.674" r="5" stroke="black" fill="#fff" alt="辽宁省鞍山市海城市" /><circle cx="8427.5636" cy="9179.7192" r="5" stroke="black" fill="#fff" alt="辽宁省鞍山市千山区" /><circle cx="8512.7516" cy="9267.5992" r="5" stroke="black" fill="#fff" alt="辽宁省辽阳市白塔区" /><circle cx="8667.5212" cy="9362.8276" r="5" stroke="black" fill="#fff" alt="辽宁省沈阳市浑南区" /><circle cx="8718.0584" cy="9357.4176" r="5" stroke="black" fill="#fff" alt="辽宁省沈阳市和平区" /><circle cx="8727.7528" cy="9374.3784" r="5" stroke="black" fill="#fff" alt="辽宁省沈阳市沈河区" /><circle cx="8893.298" cy="9468.9268" r="5" stroke="black" fill="#fff" alt="辽宁省铁岭市凡河新城" /><circle cx="9019.8768" cy="9567.3936" r="5" stroke="black" fill="#fff" alt="辽宁省铁岭市开原市" /><circle cx="9111.2484" cy="9626.6352" r="5" stroke="black" fill="#fff" alt="辽宁省铁岭市昌图县" /><circle cx="9255.4456" cy="9775.2384" r="5" stroke="black" fill="#fff" alt="吉林省四平市铁东区" /><circle cx="9389.1384" cy="9926.3312" r="5" stroke="black" fill="#fff" alt="吉林省四平市公主岭市" /><circle cx="9550.7684" cy="10080.444" r="5" stroke="black" fill="#fff" alt="吉林省长春市绿园区" /><circle cx="9564.5668" cy="10129.8148" r="5" stroke="black" fill="#fff" alt="吉林省长春市宽城区" /><circle cx="9818.3452" cy="10270.9572" r="5" stroke="black" fill="#fff" alt="吉林省长春市德惠市" /><circle cx="10003.0452" cy="10401.3268" r="5" stroke="black" fill="#fff" alt="吉林省松原市扶余县" /><circle cx="10170.7424" cy="10508.696" r="5" stroke="black" fill="#fff" alt="黑龙江省哈尔滨市双城市" /><circle cx="10282.9284" cy="10630.7832" r="5" stroke="black" fill="#fff" alt="黑龙江省哈尔滨市南岗区" /></svg></svg>