<svg xmlns="http://www.w3.org/2000/svg" version="1.1"  width="13000" height="13000"><svg xmlns="http://www.w3.org/2000/svg" version="1.1"  width="13000" height="13000"><path d=" M 3119.4237,12132.0876  L 3135.3254,12095.0857  L 3142.1611,12064.4321  L 3159.6935,12046.023  L 3185.3399,11995.5429  L 3201.5,11967.1292  L 3215.2451,11942.4136  L 3196.898,11879.8175  L 3219.8475,11832.0349  L 3252.5436,11768.8744  L 3290.1631,11744.1597  L 3367.5443,11725.1064  L 3426.7391,11730.3531  L 3478.1474,11730.6021  L 3509.0542,11725.7683  L 3555.6544,11706.9102  L 3617.2188,11703.5353  L 3666.9033,11689.2552  L 3740.9565,11646.2332  L 3830.6999,11676.789  L 3905.7057,11706.0761  L 3915.8447,11716.3261  L 3950.9275,11670.8118  L 3986.4881,11637.9092 " fill="transparent" stroke="#336666" stroke-width="5" /><circle cx="3119.4237" cy="12132.0876" r="5" stroke="black" fill="#fff" alt="上海市闵行区" /><circle cx="3135.3254" cy="12095.0857" r="5" stroke="black" fill="#fff" alt="江苏省苏州市昆山市" /><circle cx="3142.1611" cy="12064.4321" r="5" stroke="black" fill="#fff" alt="江苏省苏州市相城区" /><circle cx="3159.6935" cy="12046.023" r="5" stroke="black" fill="#fff" alt="江苏省无锡市锡山区" /><circle cx="3185.3399" cy="11995.5429" r="5" stroke="black" fill="#fff" alt="江苏省常州市新北区" /><circle cx="3201.5" cy="11967.1292" r="5" stroke="black" fill="#fff" alt="江苏省镇江市丹阳市" /><circle cx="3215.2451" cy="11942.4136" r="5" stroke="black" fill="#fff" alt="江苏省镇江市丹徒区" /><circle cx="3196.898" cy="11879.8175" r="5" stroke="black" fill="#fff" alt="江苏省南京市雨花台区" /><circle cx="3219.8475" cy="11832.0349" r="5" stroke="black" fill="#fff" alt="安徽省滁州市南谯区" /><circle cx="3252.5436" cy="11768.8744" r="5" stroke="black" fill="#fff" alt="安徽省滁州市定远县" /><circle cx="3290.1631" cy="11744.1597" r="5" stroke="black" fill="#fff" alt="安徽省蚌埠市龙子湖区" /><circle cx="3367.5443" cy="11725.1064" r="5" stroke="black" fill="#fff" alt="安徽省宿州市埇桥区" /><circle cx="3426.7391" cy="11730.3531" r="5" stroke="black" fill="#fff" alt="江苏省徐州市鼓楼区" /><circle cx="3478.1474" cy="11730.6021" r="5" stroke="black" fill="#fff" alt="山东省枣庄市薛城区" /><circle cx="3509.0542" cy="11725.7683" r="5" stroke="black" fill="#fff" alt="山东省枣庄市滕州市" /><circle cx="3555.6544" cy="11706.9102" r="5" stroke="black" fill="#fff" alt="山东省济宁市曲阜市" /><circle cx="3617.2188" cy="11703.5353" r="5" stroke="black" fill="#fff" alt="山东省泰安市岱岳区" /><circle cx="3666.9033" cy="11689.2552" r="5" stroke="black" fill="#fff" alt="山东省济南市槐荫区" /><circle cx="3740.9565" cy="11646.2332" r="5" stroke="black" fill="#fff" alt="山东省德州市德城区" /><circle cx="3830.6999" cy="11676.789" r="5" stroke="black" fill="#fff" alt="河北省沧州市沧县" /><circle cx="3905.7057" cy="11706.0761" r="5" stroke="black" fill="#fff" alt="天津市西青区" /><circle cx="3915.8447" cy="11716.3261" r="5" stroke="black" fill="#fff" alt="天津市红桥区" /><circle cx="3950.9275" cy="11670.8118" r="5" stroke="black" fill="#fff" alt="河北省廊坊市安次区" /><circle cx="3986.4881" cy="11637.9092" r="5" stroke="black" fill="#fff" alt="北京市丰台区" /></svg><svg xmlns="http://www.w3.org/2000/svg" version="1.1"  width="13000" height="13000"><path d=" M 2298.8878,11326.9462  L 2337.7157,11320.4646  L 2369.3899,11313.4569  L 2415.9454,11335.2294  L 2475.0146,11351.5283  L 2513.0136,11334.7519  L 2573.5865,11297.0006  L 2641.4996,11278.8199  L 2689.6446,11270.9676  L 2724.7774,11278.9406  L 2779.0945,11306.9908  L 2814.6749,11306.3633  L 2874.5926,11314.4065  L 2936.6583,11320.7647  L 2973.5707,11390.0578  L 2989.8879,11430.1224  L 3024.619,11433.513  L 3060.7478,11442.4252  L 3079.6607,11430.783  L 3158.6398,11422.1842  L 3214.3908,11416.0429  L 3248.7425,11406.575  L 3300.0461,11397.8624  L 3357.242,11396.3272  L 3403.4333,11383.9625  L 3440.0998,11373.2269  L 3475.9462,11377.8851  L 3531.4324,11397.9001  L 3570.6592,11429.8955  L 3608.4028,11445.2728  L 3661.9724,11455.8896  L 3706.6702,11451.3062  L 3762.9509,11453.1152  L 3801.015,11448.4582  L 3826.4055,11468.224  L 3850.8258,11507.512  L 3886.4107,11560.1259  L 3932.6521,11587.3758  L 3945.966,11605.3207  L 3989.3874,11632.3294 " fill="transparent" stroke="#00FF66" stroke-width="5" /><circle cx="2298.8878" cy="11326.9462" r="5" stroke="black" fill="#fff" alt="广东省广州市番禺区" /><circle cx="2337.7157" cy="11320.4646" r="5" stroke="black" fill="#fff" alt="广东省广州市花都区" /><circle cx="2369.3899" cy="11313.4569" r="5" stroke="black" fill="#fff" alt="广东省清远市清城区" /><circle cx="2415.9454" cy="11335.2294" r="5" stroke="black" fill="#fff" alt="广东省清远市英德市" /><circle cx="2475.0146" cy="11351.5283" r="5" stroke="black" fill="#fff" alt="广东省韶关市武江区" /><circle cx="2513.0136" cy="11334.7519" r="5" stroke="black" fill="#fff" alt="广东省韶关市乐昌市" /><circle cx="2573.5865" cy="11297.0006" r="5" stroke="black" fill="#fff" alt="湖南省郴州市北湖区" /><circle cx="2641.4996" cy="11278.8199" r="5" stroke="black" fill="#fff" alt="湖南省衡阳市耒阳市" /><circle cx="2689.6446" cy="11270.9676" r="5" stroke="black" fill="#fff" alt="湖南省衡阳市珠晖区" /><circle cx="2724.7774" cy="11278.9406" r="5" stroke="black" fill="#fff" alt="湖南省衡阳市衡山县" /><circle cx="2779.0945" cy="11306.9908" r="5" stroke="black" fill="#fff" alt="湖南省株洲市天元区" /><circle cx="2814.6749" cy="11306.3633" r="5" stroke="black" fill="#fff" alt="湖南省长沙市雨花区" /><circle cx="2874.5926" cy="11314.4065" r="5" stroke="black" fill="#fff" alt="湖南省岳阳市汨罗市" /><circle cx="2936.6583" cy="11320.7647" r="5" stroke="black" fill="#fff" alt="湖南省岳阳市岳阳楼区" /><circle cx="2973.5707" cy="11390.0578" r="5" stroke="black" fill="#fff" alt="湖北省咸宁市赤壁市" /><circle cx="2989.8879" cy="11430.1224" r="5" stroke="black" fill="#fff" alt="湖北省咸宁市咸安区" /><circle cx="3024.619" cy="11433.513" r="5" stroke="black" fill="#fff" alt="湖北省武汉市江夏区" /><circle cx="3060.7478" cy="11442.4252" r="5" stroke="black" fill="#fff" alt="湖北省武汉市洪山区" /><circle cx="3079.6607" cy="11430.783" r="5" stroke="black" fill="#fff" alt="湖北省武汉市黄陂区" /><circle cx="3158.6398" cy="11422.1842" r="5" stroke="black" fill="#fff" alt="湖北省孝感市大悟县" /><circle cx="3214.3908" cy="11416.0429" r="5" stroke="black" fill="#fff" alt="河南省信阳市平桥区" /><circle cx="3248.7425" cy="11406.575" r="5" stroke="black" fill="#fff" alt="河南省信阳市平桥区" /><circle cx="3300.0461" cy="11397.8624" r="5" stroke="black" fill="#fff" alt="河南省驻马店市驿城区" /><circle cx="3357.242" cy="11396.3272" r="5" stroke="black" fill="#fff" alt="河南省漯河市源汇区" /><circle cx="3403.4333" cy="11383.9625" r="5" stroke="black" fill="#fff" alt="河南省许昌市许昌县" /><circle cx="3440.0998" cy="11373.2269" r="5" stroke="black" fill="#fff" alt="河南省郑州市新郑市" /><circle cx="3475.9462" cy="11377.8851" r="5" stroke="black" fill="#fff" alt="河南省郑州市金水区" /><circle cx="3531.4324" cy="11397.9001" r="5" stroke="black" fill="#fff" alt="河南省新乡市牧野区" /><circle cx="3570.6592" cy="11429.8955" r="5" stroke="black" fill="#fff" alt="河南省鹤壁市淇滨区" /><circle cx="3608.4028" cy="11445.2728" r="5" stroke="black" fill="#fff" alt="河南省安阳市安阳县" /><circle cx="3661.9724" cy="11455.8896" r="5" stroke="black" fill="#fff" alt="河北省邯郸市邯郸县" /><circle cx="3706.6702" cy="11451.3062" r="5" stroke="black" fill="#fff" alt="河北省邢台市邢台县" /><circle cx="3762.9509" cy="11453.1152" r="5" stroke="black" fill="#fff" alt="河北省石家庄市高邑县" /><circle cx="3801.015" cy="11448.4582" r="5" stroke="black" fill="#fff" alt="河北省石家庄市桥西区" /><circle cx="3826.4055" cy="11468.224" r="5" stroke="black" fill="#fff" alt="河北省石家庄市正定县" /><circle cx="3850.8258" cy="11507.512" r="5" stroke="black" fill="#fff" alt="河北省保定市定州市" /><circle cx="3886.4107" cy="11560.1259" r="5" stroke="black" fill="#fff" alt="河北省保定市清苑县" /><circle cx="3932.6521" cy="11587.3758" r="5" stroke="black" fill="#fff" alt="河北省保定市高碑店市" /><circle cx="3945.966" cy="11605.3207" r="5" stroke="black" fill="#fff" alt="河北省保定市涿州市" /><circle cx="3989.3874" cy="11632.3294" r="5" stroke="black" fill="#fff" alt="北京市丰台区" /></svg><svg xmlns="http://www.w3.org/2000/svg" version="1.1"  width="13000" height="13000"><path d=" M 3913.5483,11720.9202  L 3937.2315,11701.6209  L 3990.9946,11665.6435 " fill="transparent" stroke="#99FF66" stroke-width="5" /><circle cx="3913.5483" cy="11720.9202" r="5" stroke="black" fill="#fff" alt="天津市河北区" /><circle cx="3937.2315" cy="11701.6209" r="5" stroke="black" fill="#fff" alt="天津市武清区" /><circle cx="3990.9946" cy="11665.6435" r="5" stroke="black" fill="#fff" alt="北京市通州区" /></svg><svg xmlns="http://www.w3.org/2000/svg" version="1.1"  width="13000" height="13000"><path d=" M 3437.4077,10893.9097  L 3434.1568,10894.0174  L 3453.5312,10948.1182  L 3458.1681,11009.8691  L 3457.7465,11068.8911  L 3474.8647,11116.0173  L 3468.54,11177.3815  L 3459.3815,11245.8337  L 3467.0834,11291.6478  L 3474.5489,11342.4941  L 3474.6514,11366.0789  L 3475.9462,11377.8851 " fill="transparent" stroke="#CC6633" stroke-width="5" /><circle cx="3437.4077" cy="10893.9097" r="5" stroke="black" fill="#fff" alt="陕西省西安市未央区" /><circle cx="3434.1568" cy="10894.0174" r="5" stroke="black" fill="#fff" alt="陕西省西安市临潼区" /><circle cx="3453.5312" cy="10948.1182" r="5" stroke="black" fill="#fff" alt="陕西省渭南市临渭区" /><circle cx="3458.1681" cy="11009.8691" r="5" stroke="black" fill="#fff" alt="陕西省渭南市华阴市" /><circle cx="3457.7465" cy="11068.8911" r="5" stroke="black" fill="#fff" alt="河南省三门峡市灵宝市" /><circle cx="3474.8647" cy="11116.0173" r="5" stroke="black" fill="#fff" alt="河南省三门峡市陕州区" /><circle cx="3468.54" cy="11177.3815" r="5" stroke="black" fill="#fff" alt="河南省三门峡市渑池县" /><circle cx="3459.3815" cy="11245.8337" r="5" stroke="black" fill="#fff" alt="河南省洛阳市洛龙区" /><circle cx="3467.0834" cy="11291.6478" r="5" stroke="black" fill="#fff" alt="河南省郑州市巩义市" /><circle cx="3474.5489" cy="11342.4941" r="5" stroke="black" fill="#fff" alt="河南省郑州市荥阳市" /><circle cx="3474.6514" cy="11366.0789" r="5" stroke="black" fill="#fff" alt="河南省郑州市二七区" /><circle cx="3475.9462" cy="11377.8851" r="5" stroke="black" fill="#fff" alt="河南省郑州市金水区" /></svg><svg xmlns="http://www.w3.org/2000/svg" version="1.1"  width="13000" height="13000"><path d=" M 3029.1089,12021.3041  L 3054.4611,12006.0249  L 3086.2099,12002.4222  L 3104.1715,11997.4082  L 3131.2218,11981.3704  L 3138.5949,11950.3032  L 3155.8808,11927.4118  L 3165.1125,11902.8296  L 3183.2794,11898.0054  L 3193.5474,11889.8636  L 3196.898,11879.8175 " fill="transparent" stroke="#6699CC" stroke-width="5" /><circle cx="3029.1089" cy="12021.3041" r="5" stroke="black" fill="#fff" alt="浙江省杭州市江干区" /><circle cx="3054.4611" cy="12006.0249" r="5" stroke="black" fill="#fff" alt="浙江省湖州市德清县" /><circle cx="3086.2099" cy="12002.4222" r="5" stroke="black" fill="#fff" alt="浙江省湖州市吴兴区" /><circle cx="3104.1715" cy="11997.4082" r="5" stroke="black" fill="#fff" alt="浙江省湖州市长兴县" /><circle cx="3131.2218" cy="11981.3704" r="5" stroke="black" fill="#fff" alt="江苏省无锡市宜兴市" /><circle cx="3138.5949" cy="11950.3032" r="5" stroke="black" fill="#fff" alt="江苏省常州市溧阳市" /><circle cx="3155.8808" cy="11927.4118" r="5" stroke="black" fill="#fff" alt="江苏省常州市溧阳市" /><circle cx="3165.1125" cy="11902.8296" r="5" stroke="black" fill="#fff" alt="江苏省南京市溧水区" /><circle cx="3183.2794" cy="11898.0054" r="5" stroke="black" fill="#fff" alt="江苏省镇江市句容市" /><circle cx="3193.5474" cy="11889.8636" r="5" stroke="black" fill="#fff" alt="江苏省南京市江宁区" /><circle cx="3196.898" cy="11879.8175" r="5" stroke="black" fill="#fff" alt="江苏省南京市雨花台区" /></svg><svg xmlns="http://www.w3.org/2000/svg" version="1.1"  width="13000" height="13000"><path d=" M 2487.0376,10286.2417  L 2532.4861,10303.9782  L 2536.7193,10340.0306  L 2558.4946,10377.6505  L 2571.233,10427.0141  L 2572.0795,10446.7447  L 2578.4135,10495.3063  L 2594.0378,10562.2053  L 2623.856,10593.1459  L 2638.4178,10625.7433  L 2664.7661,10663.0153  L 2661.9282,10667.4231  L 2666.6727,10674.4854  L 2655.7071,10723.2889  L 2651.6046,10788.7315  L 2669.9356,10813.6066  L 2696.4621,10865.1367  L 2728.2414,10898.1032  L 2738.0251,10912.6094  L 2744.3499,10968.4629  L 2751.2446,10999.2897  L 2760.4727,11059.285  L 2765.6292,11115.9861  L 2757.308,11150.4154  L 2766.3316,11201.3392  L 2788.7844,11254.7493  L 2796.4689,11294.238  L 2814.6749,11306.3633  L 2771.4875,11357.8001  L 2768.3236,11384.7949  L 2778.8578,11443.6214  L 2791.1259,11489.6724  L 2822.7651,11541.187  L 2862.2736,11579.231  L 2833.8205,11623.4785  L 2826.0503,11661.6426  L 2830.569,11703.8723  L 2841.09,11744.5175  L 2849.0461,11800.6477  L 2867.2171,11825.4307  L 2877.1946,11864.3701  L 2892.4451,11888.0931  L 2900.3253,11916.577  L 2911.0163,11963.5526  L 2934.9402,12014.0912  L 2972.7684,12018.5436  L 3017.2068,12029.3497  L 3029.1089,12021.3041  L 3038.1333,12029.6816  L 3043.8944,12039.1539  L 3053.7436,12056.7464  L 3069.0965,12079.978  L 3078.7908,12093.5691  L 3089.4218,12108.9579  L 3098.3517,12123.0339  L 3119.4237,12132.0876 " fill="transparent" stroke="#9900FF" stroke-width="5" /><circle cx="2487.0376" cy="10286.2417" r="5" stroke="black" fill="#fff" alt="云南省昆明市呈贡县" /><circle cx="2532.4861" cy="10303.9782" r="5" stroke="black" fill="#fff" alt="云南省昆明市嵩明县" /><circle cx="2536.7193" cy="10340.0306" r="5" stroke="black" fill="#fff" alt="云南省曲靖市马龙县" /><circle cx="2558.4946" cy="10377.6505" r="5" stroke="black" fill="#fff" alt="云南省曲靖市沾益区" /><circle cx="2571.233" cy="10427.0141" r="5" stroke="black" fill="#fff" alt="云南省曲靖市富源县" /><circle cx="2572.0795" cy="10446.7447" r="5" stroke="black" fill="#fff" alt="贵州省六盘水市盘县" /><circle cx="2578.4135" cy="10495.3063" r="5" stroke="black" fill="#fff" alt="贵州省黔西南布依族苗族自治州普安县" /><circle cx="2594.0378" cy="10562.2053" r="5" stroke="black" fill="#fff" alt="贵州省安顺市关岭布依族苗族自治县" /><circle cx="2623.856" cy="10593.1459" r="5" stroke="black" fill="#fff" alt="贵州省安顺市西秀区" /><circle cx="2638.4178" cy="10625.7433" r="5" stroke="black" fill="#fff" alt="贵州省安顺市平坝区" /><circle cx="2664.7661" cy="10663.0153" r="5" stroke="black" fill="#fff" alt="贵州省贵阳市清镇市" /><circle cx="2661.9282" cy="10667.4231" r="5" stroke="black" fill="#fff" alt="贵州省贵阳市观山湖区" /><circle cx="2666.6727" cy="10674.4854" r="5" stroke="black" fill="#fff" alt="贵州省贵阳市乌当区" /><circle cx="2655.7071" cy="10723.2889" r="5" stroke="black" fill="#fff" alt="贵州省黔南布依族苗族自治州贵定县" /><circle cx="2651.6046" cy="10788.7315" r="5" stroke="black" fill="#fff" alt="贵州省黔东南苗族侗族自治州凯里市" /><circle cx="2669.9356" cy="10813.6066" r="5" stroke="black" fill="#fff" alt="贵州省黔东南苗族侗族自治州台江县" /><circle cx="2696.4621" cy="10865.1367" r="5" stroke="black" fill="#fff" alt="贵州省黔东南苗族侗族自治州三穗县" /><circle cx="2728.2414" cy="10898.1032" r="5" stroke="black" fill="#fff" alt="贵州省铜仁地区玉屏侗族自治县" /><circle cx="2738.0251" cy="10912.6094" r="5" stroke="black" fill="#fff" alt="湖南省怀化市新晃侗族自治县" /><circle cx="2744.3499" cy="10968.4629" r="5" stroke="black" fill="#fff" alt="湖南省怀化市芷江侗族自治县" /><circle cx="2751.2446" cy="10999.2897" r="5" stroke="black" fill="#fff" alt="湖南省怀化市鹤城区" /><circle cx="2760.4727" cy="11059.285" r="5" stroke="black" fill="#fff" alt="湖南省怀化市溆浦县" /><circle cx="2765.6292" cy="11115.9861" r="5" stroke="black" fill="#fff" alt="湖南省娄底市新化县" /><circle cx="2757.308" cy="11150.4154" r="5" stroke="black" fill="#fff" alt="湖南省邵阳市新邵县" /><circle cx="2766.3316" cy="11201.3392" r="5" stroke="black" fill="#fff" alt="湖南省娄底市娄星区" /><circle cx="2788.7844" cy="11254.7493" r="5" stroke="black" fill="#fff" alt="湖南省湘潭市韶山市" /><circle cx="2796.4689" cy="11294.238" r="5" stroke="black" fill="#fff" alt="湖南省湘潭市湘潭县" /><circle cx="2814.6749" cy="11306.3633" r="5" stroke="black" fill="#fff" alt="湖南省长沙市雨花区" /><circle cx="2771.4875" cy="11357.8001" r="5" stroke="black" fill="#fff" alt="湖南省株洲市醴陵市" /><circle cx="2768.3236" cy="11384.7949" r="5" stroke="black" fill="#fff" alt="江西省萍乡市上栗县" /><circle cx="2778.8578" cy="11443.6214" r="5" stroke="black" fill="#fff" alt="江西省宜春市袁州区" /><circle cx="2791.1259" cy="11489.6724" r="5" stroke="black" fill="#fff" alt="江西省新余市渝水区" /><circle cx="2822.7651" cy="11541.187" r="5" stroke="black" fill="#fff" alt="江西省宜春市高安市" /><circle cx="2862.2736" cy="11579.231" r="5" stroke="black" fill="#fff" alt="江西省南昌市新建县" /><circle cx="2833.8205" cy="11623.4785" r="5" stroke="black" fill="#fff" alt="江西省南昌市进贤县" /><circle cx="2826.0503" cy="11661.6426" r="5" stroke="black" fill="#fff" alt="江西省抚州市东乡区" /><circle cx="2830.569" cy="11703.8723" r="5" stroke="black" fill="#fff" alt="江西省鹰潭市贵溪市" /><circle cx="2841.09" cy="11744.5175" r="5" stroke="black" fill="#fff" alt="江西省上饶市弋阳县" /><circle cx="2849.0461" cy="11800.6477" r="5" stroke="black" fill="#fff" alt="江西省上饶市信州区" /><circle cx="2867.2171" cy="11825.4307" r="5" stroke="black" fill="#fff" alt="江西省上饶市玉山县" /><circle cx="2877.1946" cy="11864.3701" r="5" stroke="black" fill="#fff" alt="浙江省衢州市江山市" /><circle cx="2892.4451" cy="11888.0931" r="5" stroke="black" fill="#fff" alt="浙江省衢州市柯城区" /><circle cx="2900.3253" cy="11916.577" r="5" stroke="black" fill="#fff" alt="浙江省衢州市龙游县" /><circle cx="2911.0163" cy="11963.5526" r="5" stroke="black" fill="#fff" alt="浙江省金华市婺城区" /><circle cx="2934.9402" cy="12014.0912" r="5" stroke="black" fill="#fff" alt="浙江省金华市义乌市" /><circle cx="2972.7684" cy="12018.5436" r="5" stroke="black" fill="#fff" alt="浙江省绍兴市诸暨市" /><circle cx="3017.2068" cy="12029.3497" r="5" stroke="black" fill="#fff" alt="浙江省杭州市萧山区" /><circle cx="3029.1089" cy="12021.3041" r="5" stroke="black" fill="#fff" alt="浙江省杭州市江干区" /><circle cx="3038.1333" cy="12029.6816" r="5" stroke="black" fill="#fff" alt="浙江省杭州市余杭区" /><circle cx="3043.8944" cy="12039.1539" r="5" stroke="black" fill="#fff" alt="浙江省嘉兴市海宁市" /><circle cx="3053.7436" cy="12056.7464" r="5" stroke="black" fill="#fff" alt="浙江省嘉兴市桐乡市" /><circle cx="3069.0965" cy="12079.978" r="5" stroke="black" fill="#fff" alt="浙江省嘉兴市南湖区" /><circle cx="3078.7908" cy="12093.5691" r="5" stroke="black" fill="#fff" alt="浙江省嘉兴市嘉善县" /><circle cx="3089.4218" cy="12108.9579" r="5" stroke="black" fill="#fff" alt="上海市金山区" /><circle cx="3098.3517" cy="12123.0339" r="5" stroke="black" fill="#fff" alt="上海市松江区" /><circle cx="3119.4237" cy="12132.0876" r="5" stroke="black" fill="#fff" alt="上海市闵行区" /></svg></svg>