<svg xmlns="http://www.w3.org/2000/svg" version="1.1"  width="13000" height="13000"><svg xmlns="http://www.w3.org/2000/svg" version="1.1"  width="13000" height="13000"><path d=" M 3111.2813,12138.1709  L 3138.5598,12098.0737  L 3136.9088,12064.2663  L 3158.9715,12035.7858  L 3183.0641,11997.2182  L 3201.0117,11960.6536  L 3213.1962,11943.3854  L 3199.1347,11877.9073  L 3232.9842,11829.6955  L 3253.0982,11769.8563  L 3294.3014,11739.379  L 3364.0061,11697.7463  L 3428.8511,11718.5591  L 3479.5063,11726.3164  L 3511.4156,11716.5824  L 3558.0996,11698.6503  L 3618.799,11704.1582  L 3665.1441,11690.1224  L 3745.0805,11629.9471  L 3821.9856,11700.7478  L 3914.1152,11700.8827  L 3916.7345,11715.1533  L 3953.8047,11668.3752  L 3990.403,11640.7526 " fill="transparent" stroke="#336666" stroke-width="5" /><circle cx="3111.2813" cy="12138.1709" r="5" stroke="black" fill="#fff" alt="上海市闵行区" /><circle cx="3138.5598" cy="12098.0737" r="5" stroke="black" fill="#fff" alt="江苏省苏州市昆山市" /><circle cx="3136.9088" cy="12064.2663" r="5" stroke="black" fill="#fff" alt="江苏省苏州市相城区" /><circle cx="3158.9715" cy="12035.7858" r="5" stroke="black" fill="#fff" alt="江苏省无锡市锡山区" /><circle cx="3183.0641" cy="11997.2182" r="5" stroke="black" fill="#fff" alt="江苏省常州市新北区" /><circle cx="3201.0117" cy="11960.6536" r="5" stroke="black" fill="#fff" alt="江苏省镇江市丹阳市" /><circle cx="3213.1962" cy="11943.3854" r="5" stroke="black" fill="#fff" alt="江苏省镇江市丹徒区" /><circle cx="3199.1347" cy="11877.9073" r="5" stroke="black" fill="#fff" alt="江苏省南京市雨花台区" /><circle cx="3232.9842" cy="11829.6955" r="5" stroke="black" fill="#fff" alt="安徽省滁州市南谯区" /><circle cx="3253.0982" cy="11769.8563" r="5" stroke="black" fill="#fff" alt="安徽省滁州市定远县" /><circle cx="3294.3014" cy="11739.379" r="5" stroke="black" fill="#fff" alt="安徽省蚌埠市龙子湖区" /><circle cx="3364.0061" cy="11697.7463" r="5" stroke="black" fill="#fff" alt="安徽省宿州市埇桥区" /><circle cx="3428.8511" cy="11718.5591" r="5" stroke="black" fill="#fff" alt="江苏省徐州市鼓楼区" /><circle cx="3479.5063" cy="11726.3164" r="5" stroke="black" fill="#fff" alt="山东省枣庄市薛城区" /><circle cx="3511.4156" cy="11716.5824" r="5" stroke="black" fill="#fff" alt="山东省枣庄市滕州市" /><circle cx="3558.0996" cy="11698.6503" r="5" stroke="black" fill="#fff" alt="山东省济宁市曲阜市" /><circle cx="3618.799" cy="11704.1582" r="5" stroke="black" fill="#fff" alt="山东省泰安市岱岳区" /><circle cx="3665.1441" cy="11690.1224" r="5" stroke="black" fill="#fff" alt="山东省济南市槐荫区" /><circle cx="3745.0805" cy="11629.9471" r="5" stroke="black" fill="#fff" alt="山东省德州市德城区" /><circle cx="3821.9856" cy="11700.7478" r="5" stroke="black" fill="#fff" alt="河北省沧州市沧县" /><circle cx="3914.1152" cy="11700.8827" r="5" stroke="black" fill="#fff" alt="天津市西青区" /><circle cx="3916.7345" cy="11715.1533" r="5" stroke="black" fill="#fff" alt="天津市红桥区" /><circle cx="3953.8047" cy="11668.3752" r="5" stroke="black" fill="#fff" alt="河北省廊坊市" /><circle cx="3990.403" cy="11640.7526" r="5" stroke="black" fill="#fff" alt="北京市" /></svg><svg xmlns="http://www.w3.org/2000/svg" version="1.1"  width="13000" height="13000"><path d=" M 2293.7244,11338.4129  L 2340.4165,11322.0218  L 2369.7899,11306.2692  L 2420.5024,11340.2376  L 2479.2924,11358.7774  L 2513.0136,11334.7519  L 2578.4054,11301.1035  L 2642.2275,11285.9795  L 2689.4657,11262.0112  L 2723.0291,11286.8268  L 2782.6867,11308.2216  L 2813.771,11303.8017  L 2880.689,11306.7259  L 2937.1903,11312.9702  L 2972.4692,11390.0628  L 2985.2892,11429.8711  L 3037.5748,11432.1551  L 3063.963,11438.5539  L 3088.2557,11437.5743  L 3156.1165,11412.7022  L 3210.1031,11412.5656  L 3297.3054,11399.3914  L 3356.5441,11401.7948  L 3412.466,11382.2983  L 3439.5562,11374.0529  L 3480.0156,11366.0555  L 3531.5039,11390.8772  L 3574.1296,11429.8694  L 3613.0585,11413.0207  L 3659.3881,11453.0925  L 3705.073,11456.1132  L 3761.5159,11461.1433  L 3800.4043,11446.1154  L 3814.6445,11457.0941  L 3851.6174,11499.0159  L 3876.5041,11548.9968  L 3932.6521,11587.3758  L 3948.5283,11597.4422  L 3985.8427,11628.7149 " fill="transparent" stroke="#00FF66" stroke-width="5" /><circle cx="2293.7244" cy="11338.4129" r="5" stroke="black" fill="#fff" alt="广东省广州市番禺区" /><circle cx="2340.4165" cy="11322.0218" r="5" stroke="black" fill="#fff" alt="广东省广州市花都区" /><circle cx="2369.7899" cy="11306.2692" r="5" stroke="black" fill="#fff" alt="广东省清远市清城区" /><circle cx="2420.5024" cy="11340.2376" r="5" stroke="black" fill="#fff" alt="广东省清远市英德市" /><circle cx="2479.2924" cy="11358.7774" r="5" stroke="black" fill="#fff" alt="广东省韶关市武江区" /><circle cx="2513.0136" cy="11334.7519" r="5" stroke="black" fill="#fff" alt="广东省韶关市乐昌市" /><circle cx="2578.4054" cy="11301.1035" r="5" stroke="black" fill="#fff" alt="湖南省郴州市北湖区" /><circle cx="2642.2275" cy="11285.9795" r="5" stroke="black" fill="#fff" alt="湖南省衡阳市耒阳市" /><circle cx="2689.4657" cy="11262.0112" r="5" stroke="black" fill="#fff" alt="湖南省衡阳市珠晖区" /><circle cx="2723.0291" cy="11286.8268" r="5" stroke="black" fill="#fff" alt="湖南省衡阳市衡山县" /><circle cx="2782.6867" cy="11308.2216" r="5" stroke="black" fill="#fff" alt="湖南省株洲市天元区" /><circle cx="2813.771" cy="11303.8017" r="5" stroke="black" fill="#fff" alt="湖南省长沙市雨花区" /><circle cx="2880.689" cy="11306.7259" r="5" stroke="black" fill="#fff" alt="湖南省岳阳市汨罗市" /><circle cx="2937.1903" cy="11312.9702" r="5" stroke="black" fill="#fff" alt="湖南省岳阳市岳阳楼区" /><circle cx="2972.4692" cy="11390.0628" r="5" stroke="black" fill="#fff" alt="湖北省咸宁市赤壁市" /><circle cx="2985.2892" cy="11429.8711" r="5" stroke="black" fill="#fff" alt="湖北省咸宁市咸安区" /><circle cx="3037.5748" cy="11432.1551" r="5" stroke="black" fill="#fff" alt="湖北省武汉市江夏区" /><circle cx="3063.963" cy="11438.5539" r="5" stroke="black" fill="#fff" alt="湖北省武汉市青山区" /><circle cx="3088.2557" cy="11437.5743" r="5" stroke="black" fill="#fff" alt="湖北省武汉市黄陂区" /><circle cx="3156.1165" cy="11412.7022" r="5" stroke="black" fill="#fff" alt="湖北省孝感市大悟县" /><circle cx="3210.1031" cy="11412.5656" r="5" stroke="black" fill="#fff" alt="河南省信阳市平桥区" /><circle cx="3297.3054" cy="11399.3914" r="5" stroke="black" fill="#fff" alt="河南省驻马店市驿城区" /><circle cx="3356.5441" cy="11401.7948" r="5" stroke="black" fill="#fff" alt="河南省漯河市源汇区" /><circle cx="3412.466" cy="11382.2983" r="5" stroke="black" fill="#fff" alt="河南省许昌市许昌县" /><circle cx="3439.5562" cy="11374.0529" r="5" stroke="black" fill="#fff" alt="河南省郑州市新郑市" /><circle cx="3480.0156" cy="11366.0555" r="5" stroke="black" fill="#fff" alt="河南省郑州市金水区" /><circle cx="3531.5039" cy="11390.8772" r="5" stroke="black" fill="#fff" alt="河南省新乡市牧野区" /><circle cx="3574.1296" cy="11429.8694" r="5" stroke="black" fill="#fff" alt="河南省鹤壁市淇滨区" /><circle cx="3613.0585" cy="11413.0207" r="5" stroke="black" fill="#fff" alt="河南省安阳市安阳县" /><circle cx="3659.3881" cy="11453.0925" r="5" stroke="black" fill="#fff" alt="河北省邯郸市邯郸县" /><circle cx="3705.073" cy="11456.1132" r="5" stroke="black" fill="#fff" alt="河北省邢台市邢台县" /><circle cx="3761.5159" cy="11461.1433" r="5" stroke="black" fill="#fff" alt="河北省石家庄市高邑县" /><circle cx="3800.4043" cy="11446.1154" r="5" stroke="black" fill="#fff" alt="河北省石家庄市桥西区" /><circle cx="3814.6445" cy="11457.0941" r="5" stroke="black" fill="#fff" alt="河北省石家庄市正定县" /><circle cx="3851.6174" cy="11499.0159" r="5" stroke="black" fill="#fff" alt="河北省保定市定州市" /><circle cx="3876.5041" cy="11548.9968" r="5" stroke="black" fill="#fff" alt="河北省保定市清苑县" /><circle cx="3932.6521" cy="11587.3758" r="5" stroke="black" fill="#fff" alt="河北省保定市高碑店市" /><circle cx="3948.5283" cy="11597.4422" r="5" stroke="black" fill="#fff" alt="河北省保定市涿州市" /><circle cx="3985.8427" cy="11628.7149" r="5" stroke="black" fill="#fff" alt="北京市丰台区" /></svg><svg xmlns="http://www.w3.org/2000/svg" version="1.1"  width="13000" height="13000"><path d=" M 3914.7869,11719.6648  L 3938.4119,11704.4388  L 3990.9946,11665.6435  L 3985.8427,11628.7149 " fill="transparent" stroke="#99FF66" stroke-width="5" /><circle cx="3914.7869" cy="11719.6648" r="5" stroke="black" fill="#fff" alt="天津市河北区" /><circle cx="3938.4119" cy="11704.4388" r="5" stroke="black" fill="#fff" alt="天津市武清区" /><circle cx="3990.9946" cy="11665.6435" r="5" stroke="black" fill="#fff" alt="北京市通州区" /><circle cx="3985.8427" cy="11628.7149" r="5" stroke="black" fill="#fff" alt="北京市丰台区" /></svg><svg xmlns="http://www.w3.org/2000/svg" version="1.1"  width="13000" height="13000"><path d=" M 3451.6828,11089.422  L 3472.0548,11110.3563  L 3476.7244,11176.1504  L 3461.9404,11246.4173  L 3474.7834,11302.2497  L 3478.7375,11338.3221  L 3472.393,11364.0179  L 3480.0156,11366.0555 " fill="transparent" stroke="#CC6633" stroke-width="5" /><circle cx="3451.6828" cy="11089.422" r="5" stroke="black" fill="#fff" alt="河南省三门峡市灵宝市" /><circle cx="3472.0548" cy="11110.3563" r="5" stroke="black" fill="#fff" alt="河南省三门峡市陕县" /><circle cx="3476.7244" cy="11176.1504" r="5" stroke="black" fill="#fff" alt="河南省三门峡市渑池县" /><circle cx="3461.9404" cy="11246.4173" r="5" stroke="black" fill="#fff" alt="河南省洛阳市洛龙区" /><circle cx="3474.7834" cy="11302.2497" r="5" stroke="black" fill="#fff" alt="河南省郑州市巩义市" /><circle cx="3478.7375" cy="11338.3221" r="5" stroke="black" fill="#fff" alt="河南省郑州市荥阳市" /><circle cx="3472.393" cy="11364.0179" r="5" stroke="black" fill="#fff" alt="河南省郑州市二七区" /><circle cx="3480.0156" cy="11366.0555" r="5" stroke="black" fill="#fff" alt="河南省郑州市金水区" /></svg><svg xmlns="http://www.w3.org/2000/svg" version="1.1"  width="13000" height="13000"><path d=" M 3025.7012,12020.5001  L 3054.251,11997.7401  L 3085.7151,12018.5838  L 3102.6666,11991.0952  L 3134.0637,11982.3308  L 3141.6911,11948.4211  L 3165.1125,11902.8296  L 3194.4999,11916.8695  L 3195.3702,11883.9685  L 3199.1347,11877.9073 " fill="transparent" stroke="#6699CC" stroke-width="5" /><circle cx="3025.7012" cy="12020.5001" r="5" stroke="black" fill="#fff" alt="浙江省杭州市江干区" /><circle cx="3054.251" cy="11997.7401" r="5" stroke="black" fill="#fff" alt="浙江省湖州市德清县" /><circle cx="3085.7151" cy="12018.5838" r="5" stroke="black" fill="#fff" alt="浙江省湖州市吴兴区" /><circle cx="3102.6666" cy="11991.0952" r="5" stroke="black" fill="#fff" alt="浙江省湖州市长兴县" /><circle cx="3134.0637" cy="11982.3308" r="5" stroke="black" fill="#fff" alt="江苏省无锡市宜兴市" /><circle cx="3141.6911" cy="11948.4211" r="5" stroke="black" fill="#fff" alt="江苏省常州市溧阳市" /><circle cx="3165.1125" cy="11902.8296" r="5" stroke="black" fill="#fff" alt="江苏省南京市溧水县" /><circle cx="3194.4999" cy="11916.8695" r="5" stroke="black" fill="#fff" alt="江苏省镇江市句容市" /><circle cx="3195.3702" cy="11883.9685" r="5" stroke="black" fill="#fff" alt="江苏省南京市江宁区" /><circle cx="3199.1347" cy="11877.9073" r="5" stroke="black" fill="#fff" alt="江苏省南京市雨花台区" /></svg><svg xmlns="http://www.w3.org/2000/svg" version="1.1"  width="13000" height="13000"><path d=" M 2735.2673,10917.4932  L 2744.3499,10968.4629  L 2757.8926,11004.0315  L 2790.8281,11059.4921  L 2772.6515,11132.7412  L 2732.0918,11145.8657  L 2772.9924,11200.1936  L 2791.5009,11252.6671  L 2777.8958,11295.0831  L 2813.771,11303.8017  L 2764.613,11349.6894  L 2788.0302,11379.5311  L 2779.8846,11442.4657  L 2780.0387,11494.4646  L 2841.7255,11537.5616  L 2869.2864,11581.5278  L 2837.6918,11624.0924  L 2824.7697,11660.356  L 2829.2519,11724.5497  L 2837.8044,11744.9588  L 2843.1002,11796.646  L 2868.2055,11824.5124  L 2873.7223,11862.6974  L 2896.8504,11887.1333  L 2902.8319,11917.2304  L 2908.6221,11957.1633  L 2930.6841,12007.5058  L 2970.8692,12024.6863  L 3018.3806,12026.4253  L 3025.7012,12020.5001  L 3041.9045,12029.9402  L 3051.0659,12068.0757  L 3063.0173,12056.5099  L 3074.7842,12078.3025  L 3083.0898,12092.585  L 3074.1991,12134.197  L 3103.2243,12122.7747  L 3111.2813,12138.1709 " fill="transparent" stroke="#9900FF" stroke-width="5" /><circle cx="2735.2673" cy="10917.4932" r="5" stroke="black" fill="#fff" alt="湖南省怀化市新晃侗族自治县" /><circle cx="2744.3499" cy="10968.4629" r="5" stroke="black" fill="#fff" alt="湖南省怀化市芷江侗族自治县" /><circle cx="2757.8926" cy="11004.0315" r="5" stroke="black" fill="#fff" alt="湖南省怀化市鹤城区" /><circle cx="2790.8281" cy="11059.4921" r="5" stroke="black" fill="#fff" alt="湖南省怀化市溆浦县" /><circle cx="2772.6515" cy="11132.7412" r="5" stroke="black" fill="#fff" alt="湖南省娄底市新化县" /><circle cx="2732.0918" cy="11145.8657" r="5" stroke="black" fill="#fff" alt="湖南省邵阳市新邵县" /><circle cx="2772.9924" cy="11200.1936" r="5" stroke="black" fill="#fff" alt="湖南省娄底市娄星区" /><circle cx="2791.5009" cy="11252.6671" r="5" stroke="black" fill="#fff" alt="湖南省湘潭市韶山市" /><circle cx="2777.8958" cy="11295.0831" r="5" stroke="black" fill="#fff" alt="湖南省湘潭市湘潭县" /><circle cx="2813.771" cy="11303.8017" r="5" stroke="black" fill="#fff" alt="湖南省长沙市雨花区" /><circle cx="2764.613" cy="11349.6894" r="5" stroke="black" fill="#fff" alt="湖南省株洲市醴陵市" /><circle cx="2788.0302" cy="11379.5311" r="5" stroke="black" fill="#fff" alt="江西省萍乡市上栗县" /><circle cx="2779.8846" cy="11442.4657" r="5" stroke="black" fill="#fff" alt="江西省宜春市袁州区" /><circle cx="2780.0387" cy="11494.4646" r="5" stroke="black" fill="#fff" alt="江西省新余市渝水区" /><circle cx="2841.7255" cy="11537.5616" r="5" stroke="black" fill="#fff" alt="江西省宜春市高安市" /><circle cx="2869.2864" cy="11581.5278" r="5" stroke="black" fill="#fff" alt="江西省南昌市新建县" /><circle cx="2837.6918" cy="11624.0924" r="5" stroke="black" fill="#fff" alt="江西省南昌市进贤县" /><circle cx="2824.7697" cy="11660.356" r="5" stroke="black" fill="#fff" alt="江西省抚州市东乡县" /><circle cx="2829.2519" cy="11724.5497" r="5" stroke="black" fill="#fff" alt="江西省鹰潭市贵溪市" /><circle cx="2837.8044" cy="11744.9588" r="5" stroke="black" fill="#fff" alt="江西省上饶市弋阳县" /><circle cx="2843.1002" cy="11796.646" r="5" stroke="black" fill="#fff" alt="江西省上饶市信州区" /><circle cx="2868.2055" cy="11824.5124" r="5" stroke="black" fill="#fff" alt="江西省上饶市玉山县" /><circle cx="2873.7223" cy="11862.6974" r="5" stroke="black" fill="#fff" alt="浙江省衢州市江山市" /><circle cx="2896.8504" cy="11887.1333" r="5" stroke="black" fill="#fff" alt="浙江省衢州市柯城区" /><circle cx="2902.8319" cy="11917.2304" r="5" stroke="black" fill="#fff" alt="浙江省衢州市龙游县" /><circle cx="2908.6221" cy="11957.1633" r="5" stroke="black" fill="#fff" alt="浙江省金华市婺城区" /><circle cx="2930.6841" cy="12007.5058" r="5" stroke="black" fill="#fff" alt="浙江省金华市义乌市" /><circle cx="2970.8692" cy="12024.6863" r="5" stroke="black" fill="#fff" alt="浙江省绍兴市诸暨市" /><circle cx="3018.3806" cy="12026.4253" r="5" stroke="black" fill="#fff" alt="浙江省杭州市萧山区" /><circle cx="3025.7012" cy="12020.5001" r="5" stroke="black" fill="#fff" alt="浙江省杭州市江干区" /><circle cx="3041.9045" cy="12029.9402" r="5" stroke="black" fill="#fff" alt="浙江省杭州市余杭区" /><circle cx="3051.0659" cy="12068.0757" r="5" stroke="black" fill="#fff" alt="浙江省嘉兴市海宁市" /><circle cx="3063.0173" cy="12056.5099" r="5" stroke="black" fill="#fff" alt="浙江省嘉兴市桐乡市" /><circle cx="3074.7842" cy="12078.3025" r="5" stroke="black" fill="#fff" alt="浙江省嘉兴市南湖区" /><circle cx="3083.0898" cy="12092.585" r="5" stroke="black" fill="#fff" alt="浙江省嘉兴市嘉善县" /><circle cx="3074.1991" cy="12134.197" r="5" stroke="black" fill="#fff" alt="上海市金山区" /><circle cx="3103.2243" cy="12122.7747" r="5" stroke="black" fill="#fff" alt="上海市松江区" /><circle cx="3111.2813" cy="12138.1709" r="5" stroke="black" fill="#fff" alt="上海市闵行区" /></svg></svg>