<svg xmlns="http://www.w3.org/2000/svg" version="1.1"  width="13000" height="13000"><svg xmlns="http://www.w3.org/2000/svg" version="1.1"  width="13000" height="13000"><path d=" M 2238.8474,4264.1752  L 2270.6508,4190.1714  L 2284.3222,4128.8642  L 2319.387,4092.046  L 2370.6798,3991.0858  L 2403,3934.2584  L 2430.4902,3884.8272  L 2393.796,3759.635  L 2439.695,3664.0698  L 2505.0872,3537.7488  L 2580.3262,3488.3194  L 2735.0886,3450.2128  L 2853.4782,3460.7062  L 2956.2948,3461.2042  L 3018.1084,3451.5366  L 3111.3088,3413.8204  L 3234.4376,3407.0706  L 3333.8066,3378.5104  L 3481.913,3292.4664  L 3661.3998,3353.578  L 3811.4114,3412.1522  L 3831.6894,3432.6522  L 3901.855,3341.6236  L 3972.9762,3275.8184 " fill="transparent" stroke="#CC0033" stroke-width="5" /><circle cx="2238.8474" cy="4264.1752" r="5" stroke="black" fill="#fff" alt="上海市闵行区" /><circle cx="2270.6508" cy="4190.1714" r="5" stroke="black" fill="#fff" alt="江苏省苏州市昆山市" /><circle cx="2284.3222" cy="4128.8642" r="5" stroke="black" fill="#fff" alt="江苏省苏州市相城区" /><circle cx="2319.387" cy="4092.046" r="5" stroke="black" fill="#fff" alt="江苏省无锡市锡山区" /><circle cx="2370.6798" cy="3991.0858" r="5" stroke="black" fill="#fff" alt="江苏省常州市新北区" /><circle cx="2403" cy="3934.2584" r="5" stroke="black" fill="#fff" alt="江苏省镇江市丹阳市" /><circle cx="2430.4902" cy="3884.8272" r="5" stroke="black" fill="#fff" alt="江苏省镇江市丹徒区" /><circle cx="2393.796" cy="3759.635" r="5" stroke="black" fill="#fff" alt="江苏省南京市雨花台区" /><circle cx="2439.695" cy="3664.0698" r="5" stroke="black" fill="#fff" alt="安徽省滁州市南谯区" /><circle cx="2505.0872" cy="3537.7488" r="5" stroke="black" fill="#fff" alt="安徽省滁州市定远县" /><circle cx="2580.3262" cy="3488.3194" r="5" stroke="black" fill="#fff" alt="安徽省蚌埠市龙子湖区" /><circle cx="2735.0886" cy="3450.2128" r="5" stroke="black" fill="#fff" alt="安徽省宿州市埇桥区" /><circle cx="2853.4782" cy="3460.7062" r="5" stroke="black" fill="#fff" alt="江苏省徐州市鼓楼区" /><circle cx="2956.2948" cy="3461.2042" r="5" stroke="black" fill="#fff" alt="山东省枣庄市薛城区" /><circle cx="3018.1084" cy="3451.5366" r="5" stroke="black" fill="#fff" alt="山东省枣庄市滕州市" /><circle cx="3111.3088" cy="3413.8204" r="5" stroke="black" fill="#fff" alt="山东省济宁市曲阜市" /><circle cx="3234.4376" cy="3407.0706" r="5" stroke="black" fill="#fff" alt="山东省泰安市岱岳区" /><circle cx="3333.8066" cy="3378.5104" r="5" stroke="black" fill="#fff" alt="山东省济南市槐荫区" /><circle cx="3481.913" cy="3292.4664" r="5" stroke="black" fill="#fff" alt="山东省德州市德城区" /><circle cx="3661.3998" cy="3353.578" r="5" stroke="black" fill="#fff" alt="河北省沧州市沧县" /><circle cx="3811.4114" cy="3412.1522" r="5" stroke="black" fill="#fff" alt="天津市西青区" /><circle cx="3831.6894" cy="3432.6522" r="5" stroke="black" fill="#fff" alt="天津市红桥区" /><circle cx="3901.855" cy="3341.6236" r="5" stroke="black" fill="#fff" alt="河北省廊坊市安次区" /><circle cx="3972.9762" cy="3275.8184" r="5" stroke="black" fill="#fff" alt="北京市丰台区" /></svg><svg xmlns="http://www.w3.org/2000/svg" version="1.1"  width="13000" height="13000"><path d=" M 597.7756,2653.8924  L 675.4314,2640.9292  L 738.7798,2626.9138  L 831.8908,2670.4588  L 950.0292,2703.0566  L 1147.173,2594.0012  L 1282.9992,2557.6398  L 1379.2892,2541.9352  L 1449.5548,2557.8812  L 1558.189,2613.9816  L 1629.3498,2612.7266  L 1749.1852,2628.813  L 1873.3166,2641.5294  L 1947.1414,2780.1156  L 1979.7758,2860.2448  L 2121.4956,2884.8504  L 2159.3214,2861.566  L 2317.2796,2844.3684  L 2428.7816,2832.0858  L 2497.485,2813.15  L 2600.0922,2795.7248  L 2714.484,2792.6544  L 2806.8666,2767.925  L 2951.8924,2755.7702  L 3062.8648,2795.8002  L 3141.3184,2859.791  L 3216.8056,2890.5456  L 3323.9448,2911.7792  L 3413.3404,2902.6124  L 3525.9018,2906.2304  L 3602.03,2896.9164  L 3652.811,2936.448  L 3701.6516,3015.024  L 3772.8214,3120.2518  L 3865.3042,3174.7516  L 3891.932,3210.6414  L 3978.7748,3264.6588 " fill="transparent" stroke="#00FF66" stroke-width="5" /><circle cx="597.7756" cy="2653.8924" r="5" stroke="black" fill="#fff" alt="广东省广州市番禺区" /><circle cx="675.4314" cy="2640.9292" r="5" stroke="black" fill="#fff" alt="广东省广州市花都区" /><circle cx="738.7798" cy="2626.9138" r="5" stroke="black" fill="#fff" alt="广东省清远市清城区" /><circle cx="831.8908" cy="2670.4588" r="5" stroke="black" fill="#fff" alt="广东省清远市英德市" /><circle cx="950.0292" cy="2703.0566" r="5" stroke="black" fill="#fff" alt="广东省韶关市武江区" /><circle cx="1147.173" cy="2594.0012" r="5" stroke="black" fill="#fff" alt="湖南省郴州市北湖区" /><circle cx="1282.9992" cy="2557.6398" r="5" stroke="black" fill="#fff" alt="湖南省衡阳市耒阳市" /><circle cx="1379.2892" cy="2541.9352" r="5" stroke="black" fill="#fff" alt="湖南省衡阳市珠晖区" /><circle cx="1449.5548" cy="2557.8812" r="5" stroke="black" fill="#fff" alt="湖南省衡阳市衡山县" /><circle cx="1558.189" cy="2613.9816" r="5" stroke="black" fill="#fff" alt="湖南省株洲市天元区" /><circle cx="1629.3498" cy="2612.7266" r="5" stroke="black" fill="#fff" alt="湖南省长沙市雨花区" /><circle cx="1749.1852" cy="2628.813" r="5" stroke="black" fill="#fff" alt="湖南省岳阳市汨罗市" /><circle cx="1873.3166" cy="2641.5294" r="5" stroke="black" fill="#fff" alt="湖南省岳阳市岳阳楼区" /><circle cx="1947.1414" cy="2780.1156" r="5" stroke="black" fill="#fff" alt="湖北省咸宁市赤壁市" /><circle cx="1979.7758" cy="2860.2448" r="5" stroke="black" fill="#fff" alt="湖北省咸宁市咸安区" /><circle cx="2121.4956" cy="2884.8504" r="5" stroke="black" fill="#fff" alt="湖北省武汉市洪山区" /><circle cx="2159.3214" cy="2861.566" r="5" stroke="black" fill="#fff" alt="湖北省武汉市黄陂区" /><circle cx="2317.2796" cy="2844.3684" r="5" stroke="black" fill="#fff" alt="湖北省孝感市大悟县" /><circle cx="2428.7816" cy="2832.0858" r="5" stroke="black" fill="#fff" alt="河南省信阳市平桥区" /><circle cx="2497.485" cy="2813.15" r="5" stroke="black" fill="#fff" alt="河南省信阳市平桥区" /><circle cx="2600.0922" cy="2795.7248" r="5" stroke="black" fill="#fff" alt="河南省驻马店市驿城区" /><circle cx="2714.484" cy="2792.6544" r="5" stroke="black" fill="#fff" alt="河南省漯河市源汇区" /><circle cx="2806.8666" cy="2767.925" r="5" stroke="black" fill="#fff" alt="河南省许昌市许昌县" /><circle cx="2951.8924" cy="2755.7702" r="5" stroke="black" fill="#fff" alt="河南省郑州市金水区" /><circle cx="3062.8648" cy="2795.8002" r="5" stroke="black" fill="#fff" alt="河南省新乡市牧野区" /><circle cx="3141.3184" cy="2859.791" r="5" stroke="black" fill="#fff" alt="河南省鹤壁市淇滨区" /><circle cx="3216.8056" cy="2890.5456" r="5" stroke="black" fill="#fff" alt="河南省安阳市安阳县" /><circle cx="3323.9448" cy="2911.7792" r="5" stroke="black" fill="#fff" alt="河北省邯郸市邯郸县" /><circle cx="3413.3404" cy="2902.6124" r="5" stroke="black" fill="#fff" alt="河北省邢台市邢台县" /><circle cx="3525.9018" cy="2906.2304" r="5" stroke="black" fill="#fff" alt="河北省石家庄市高邑县" /><circle cx="3602.03" cy="2896.9164" r="5" stroke="black" fill="#fff" alt="河北省石家庄市桥西区" /><circle cx="3652.811" cy="2936.448" r="5" stroke="black" fill="#fff" alt="河北省石家庄市正定县" /><circle cx="3701.6516" cy="3015.024" r="5" stroke="black" fill="#fff" alt="河北省保定市定州市" /><circle cx="3772.8214" cy="3120.2518" r="5" stroke="black" fill="#fff" alt="河北省保定市清苑县" /><circle cx="3865.3042" cy="3174.7516" r="5" stroke="black" fill="#fff" alt="河北省保定市高碑店市" /><circle cx="3891.932" cy="3210.6414" r="5" stroke="black" fill="#fff" alt="河北省保定市涿州市" /><circle cx="3978.7748" cy="3264.6588" r="5" stroke="black" fill="#fff" alt="北京市丰台区" /></svg><svg xmlns="http://www.w3.org/2000/svg" version="1.1"  width="13000" height="13000"><path d=" M 3827.0966,3441.8404  L 3874.463,3403.2418  L 3972.9762,3275.8184 " fill="transparent" stroke="#99FF66" stroke-width="5" /><circle cx="3827.0966" cy="3441.8404" r="5" stroke="black" fill="#fff" alt="天津市河北区" /><circle cx="3874.463" cy="3403.2418" r="5" stroke="black" fill="#fff" alt="天津市武清区" /><circle cx="3972.9762" cy="3275.8184" r="5" stroke="black" fill="#fff" alt="北京市丰台区" /></svg><svg xmlns="http://www.w3.org/2000/svg" version="1.1"  width="13000" height="13000"><path d=" M 2874.8154,1787.8194  L 2907.0624,1896.2364  L 2916.3362,2019.7382  L 2915.493,2137.7822  L 2949.7294,2232.0346  L 2937.08,2354.763  L 2918.763,2491.6674  L 2934.1668,2583.2956  L 2949.0978,2684.9882  L 2949.3028,2732.1578  L 2951.8924,2755.7702 " fill="transparent" stroke="#CC6633" stroke-width="5" /><circle cx="2874.8154" cy="1787.8194" r="5" stroke="black" fill="#fff" alt="陕西省西安市未央区" /><circle cx="2907.0624" cy="1896.2364" r="5" stroke="black" fill="#fff" alt="陕西省渭南市临渭区" /><circle cx="2916.3362" cy="2019.7382" r="5" stroke="black" fill="#fff" alt="陕西省渭南市华阴市" /><circle cx="2915.493" cy="2137.7822" r="5" stroke="black" fill="#fff" alt="河南省三门峡市灵宝市" /><circle cx="2949.7294" cy="2232.0346" r="5" stroke="black" fill="#fff" alt="河南省三门峡市陕州区" /><circle cx="2937.08" cy="2354.763" r="5" stroke="black" fill="#fff" alt="河南省三门峡市渑池县" /><circle cx="2918.763" cy="2491.6674" r="5" stroke="black" fill="#fff" alt="河南省洛阳市洛龙区" /><circle cx="2934.1668" cy="2583.2956" r="5" stroke="black" fill="#fff" alt="河南省郑州市巩义市" /><circle cx="2949.0978" cy="2684.9882" r="5" stroke="black" fill="#fff" alt="河南省郑州市荥阳市" /><circle cx="2949.3028" cy="2732.1578" r="5" stroke="black" fill="#fff" alt="河南省郑州市二七区" /><circle cx="2951.8924" cy="2755.7702" r="5" stroke="black" fill="#fff" alt="河南省郑州市金水区" /></svg><svg xmlns="http://www.w3.org/2000/svg" version="1.1"  width="13000" height="13000"><path d=" M 2058.2178,4042.6082  L 2108.9222,4012.0498  L 2172.4198,4004.8444  L 2208.343,3994.8164  L 2262.4436,3962.7408  L 2277.1898,3900.6064  L 2311.7616,3854.8236  L 2366.5588,3796.0108  L 2387.0948,3779.7272  L 2393.796,3759.635 " fill="transparent" stroke="#6699CC" stroke-width="5" /><circle cx="2058.2178" cy="4042.6082" r="5" stroke="black" fill="#fff" alt="浙江省杭州市江干区" /><circle cx="2108.9222" cy="4012.0498" r="5" stroke="black" fill="#fff" alt="浙江省湖州市德清县" /><circle cx="2172.4198" cy="4004.8444" r="5" stroke="black" fill="#fff" alt="浙江省湖州市吴兴区" /><circle cx="2208.343" cy="3994.8164" r="5" stroke="black" fill="#fff" alt="浙江省湖州市长兴县" /><circle cx="2262.4436" cy="3962.7408" r="5" stroke="black" fill="#fff" alt="江苏省无锡市宜兴市" /><circle cx="2277.1898" cy="3900.6064" r="5" stroke="black" fill="#fff" alt="江苏省常州市溧阳市" /><circle cx="2311.7616" cy="3854.8236" r="5" stroke="black" fill="#fff" alt="江苏省常州市溧阳市" /><circle cx="2366.5588" cy="3796.0108" r="5" stroke="black" fill="#fff" alt="江苏省镇江市句容市" /><circle cx="2387.0948" cy="3779.7272" r="5" stroke="black" fill="#fff" alt="江苏省南京市江宁区" /><circle cx="2393.796" cy="3759.635" r="5" stroke="black" fill="#fff" alt="江苏省南京市雨花台区" /></svg><svg xmlns="http://www.w3.org/2000/svg" version="1.1"  width="13000" height="13000"><path d=" M 974.0752,572.4834  L 1064.9722,607.9564  L 1073.4386,680.0612  L 1116.9892,755.301  L 1142.466,854.0282  L 1144.159,893.4894  L 1156.827,990.6126  L 1188.0756,1124.4106  L 1247.712,1186.2918  L 1276.8356,1251.4866  L 1323.8564,1334.8462  L 1311.4142,1446.5778  L 1303.2092,1577.463  L 1339.8712,1627.2132  L 1392.9242,1730.2734  L 1456.4828,1796.2064  L 1476.0502,1825.2188  L 1488.6998,1936.9258  L 1502.4892,1998.5794  L 1520.9454,2118.57  L 1531.2584,2231.9722  L 1514.616,2300.8308  L 1532.6632,2402.6784  L 1577.5688,2509.4986  L 1592.9378,2588.476  L 1629.3498,2612.7266  L 1542.975,2715.6002  L 1536.6472,2769.5898  L 1557.7156,2887.2428  L 1582.2518,2979.3448  L 1645.5302,3082.374  L 1724.5472,3158.462  L 1667.641,3246.957  L 1652.1006,3323.2852  L 1661.138,3407.7446  L 1682.18,3489.035  L 1698.0922,3601.2954  L 1734.4342,3650.8614  L 1754.3892,3728.7402  L 1784.8902,3776.1862  L 1800.6506,3833.154  L 1822.0326,3927.1052  L 1869.8804,4028.1824  L 1945.5368,4037.0872  L 2058.2178,4042.6082  L 2076.2666,4059.3632  L 2087.7888,4078.3078  L 2107.4872,4113.4928  L 2138.193,4159.956  L 2157.5816,4187.1382  L 2178.8436,4217.9158  L 2196.7034,4246.0678  L 2238.8474,4264.1752 " fill="transparent" stroke="#9900FF" stroke-width="5" /><circle cx="974.0752" cy="572.4834" r="5" stroke="black" fill="#fff" alt="云南省昆明市呈贡县" /><circle cx="1064.9722" cy="607.9564" r="5" stroke="black" fill="#fff" alt="云南省昆明市嵩明县" /><circle cx="1073.4386" cy="680.0612" r="5" stroke="black" fill="#fff" alt="云南省曲靖市马龙县" /><circle cx="1116.9892" cy="755.301" r="5" stroke="black" fill="#fff" alt="云南省曲靖市沾益区" /><circle cx="1142.466" cy="854.0282" r="5" stroke="black" fill="#fff" alt="云南省曲靖市富源县" /><circle cx="1144.159" cy="893.4894" r="5" stroke="black" fill="#fff" alt="贵州省六盘水市盘县" /><circle cx="1156.827" cy="990.6126" r="5" stroke="black" fill="#fff" alt="贵州省黔西南布依族苗族自治州普安县" /><circle cx="1188.0756" cy="1124.4106" r="5" stroke="black" fill="#fff" alt="贵州省安顺市关岭布依族苗族自治县" /><circle cx="1247.712" cy="1186.2918" r="5" stroke="black" fill="#fff" alt="贵州省安顺市西秀区" /><circle cx="1276.8356" cy="1251.4866" r="5" stroke="black" fill="#fff" alt="贵州省安顺市平坝区" /><circle cx="1323.8564" cy="1334.8462" r="5" stroke="black" fill="#fff" alt="贵州省贵阳市观山湖区" /><circle cx="1311.4142" cy="1446.5778" r="5" stroke="black" fill="#fff" alt="贵州省黔南布依族苗族自治州贵定县" /><circle cx="1303.2092" cy="1577.463" r="5" stroke="black" fill="#fff" alt="贵州省黔东南苗族侗族自治州凯里市" /><circle cx="1339.8712" cy="1627.2132" r="5" stroke="black" fill="#fff" alt="贵州省黔东南苗族侗族自治州台江县" /><circle cx="1392.9242" cy="1730.2734" r="5" stroke="black" fill="#fff" alt="贵州省黔东南苗族侗族自治州三穗县" /><circle cx="1456.4828" cy="1796.2064" r="5" stroke="black" fill="#fff" alt="贵州省铜仁地区玉屏侗族自治县" /><circle cx="1476.0502" cy="1825.2188" r="5" stroke="black" fill="#fff" alt="湖南省怀化市新晃侗族自治县" /><circle cx="1488.6998" cy="1936.9258" r="5" stroke="black" fill="#fff" alt="湖南省怀化市芷江侗族自治县" /><circle cx="1502.4892" cy="1998.5794" r="5" stroke="black" fill="#fff" alt="湖南省怀化市鹤城区" /><circle cx="1520.9454" cy="2118.57" r="5" stroke="black" fill="#fff" alt="湖南省怀化市溆浦县" /><circle cx="1531.2584" cy="2231.9722" r="5" stroke="black" fill="#fff" alt="湖南省娄底市新化县" /><circle cx="1514.616" cy="2300.8308" r="5" stroke="black" fill="#fff" alt="湖南省邵阳市新邵县" /><circle cx="1532.6632" cy="2402.6784" r="5" stroke="black" fill="#fff" alt="湖南省娄底市娄星区" /><circle cx="1577.5688" cy="2509.4986" r="5" stroke="black" fill="#fff" alt="湖南省湘潭市韶山市" /><circle cx="1592.9378" cy="2588.476" r="5" stroke="black" fill="#fff" alt="湖南省湘潭市湘潭县" /><circle cx="1629.3498" cy="2612.7266" r="5" stroke="black" fill="#fff" alt="湖南省长沙市雨花区" /><circle cx="1542.975" cy="2715.6002" r="5" stroke="black" fill="#fff" alt="湖南省株洲市醴陵市" /><circle cx="1536.6472" cy="2769.5898" r="5" stroke="black" fill="#fff" alt="江西省萍乡市上栗县" /><circle cx="1557.7156" cy="2887.2428" r="5" stroke="black" fill="#fff" alt="江西省宜春市袁州区" /><circle cx="1582.2518" cy="2979.3448" r="5" stroke="black" fill="#fff" alt="江西省新余市渝水区" /><circle cx="1645.5302" cy="3082.374" r="5" stroke="black" fill="#fff" alt="江西省宜春市高安市" /><circle cx="1724.5472" cy="3158.462" r="5" stroke="black" fill="#fff" alt="江西省南昌市新建县" /><circle cx="1667.641" cy="3246.957" r="5" stroke="black" fill="#fff" alt="江西省南昌市进贤县" /><circle cx="1652.1006" cy="3323.2852" r="5" stroke="black" fill="#fff" alt="江西省抚州市东乡区" /><circle cx="1661.138" cy="3407.7446" r="5" stroke="black" fill="#fff" alt="江西省鹰潭市贵溪市" /><circle cx="1682.18" cy="3489.035" r="5" stroke="black" fill="#fff" alt="江西省上饶市弋阳县" /><circle cx="1698.0922" cy="3601.2954" r="5" stroke="black" fill="#fff" alt="江西省上饶市信州区" /><circle cx="1734.4342" cy="3650.8614" r="5" stroke="black" fill="#fff" alt="江西省上饶市玉山县" /><circle cx="1754.3892" cy="3728.7402" r="5" stroke="black" fill="#fff" alt="浙江省衢州市江山市" /><circle cx="1784.8902" cy="3776.1862" r="5" stroke="black" fill="#fff" alt="浙江省衢州市柯城区" /><circle cx="1800.6506" cy="3833.154" r="5" stroke="black" fill="#fff" alt="浙江省衢州市龙游县" /><circle cx="1822.0326" cy="3927.1052" r="5" stroke="black" fill="#fff" alt="浙江省金华市婺城区" /><circle cx="1869.8804" cy="4028.1824" r="5" stroke="black" fill="#fff" alt="浙江省金华市义乌市" /><circle cx="1945.5368" cy="4037.0872" r="5" stroke="black" fill="#fff" alt="浙江省绍兴市诸暨市" /><circle cx="2058.2178" cy="4042.6082" r="5" stroke="black" fill="#fff" alt="浙江省杭州市江干区" /><circle cx="2076.2666" cy="4059.3632" r="5" stroke="black" fill="#fff" alt="浙江省杭州市余杭区" /><circle cx="2087.7888" cy="4078.3078" r="5" stroke="black" fill="#fff" alt="浙江省嘉兴市海宁市" /><circle cx="2107.4872" cy="4113.4928" r="5" stroke="black" fill="#fff" alt="浙江省嘉兴市桐乡市" /><circle cx="2138.193" cy="4159.956" r="5" stroke="black" fill="#fff" alt="浙江省嘉兴市南湖区" /><circle cx="2157.5816" cy="4187.1382" r="5" stroke="black" fill="#fff" alt="浙江省嘉兴市嘉善县" /><circle cx="2178.8436" cy="4217.9158" r="5" stroke="black" fill="#fff" alt="上海市金山区" /><circle cx="2196.7034" cy="4246.0678" r="5" stroke="black" fill="#fff" alt="上海市松江区" /><circle cx="2238.8474" cy="4264.1752" r="5" stroke="black" fill="#fff" alt="上海市闵行区" /></svg><svg xmlns="http://www.w3.org/2000/svg" version="1.1"  width="13000" height="13000"><path d=" M 1972.4164,4307.3898  L 1984.703,4307.0954  L 2019.6978,4233.647  L 2006.6242,4173.6244  L 2019.8668,4107.6124  L 2034.4136,4058.6994  L 2058.2178,4042.6082 " fill="transparent" stroke="#999966" stroke-width="5" /><circle cx="1972.4164" cy="4307.3898" r="5" stroke="black" fill="#fff" alt="浙江省宁波市海曙区" /><circle cx="1984.703" cy="4307.0954" r="5" stroke="black" fill="#fff" alt="浙江省宁波市江北区" /><circle cx="2019.6978" cy="4233.647" r="5" stroke="black" fill="#fff" alt="浙江省宁波市余姚市" /><circle cx="2006.6242" cy="4173.6244" r="5" stroke="black" fill="#fff" alt="浙江省绍兴市上虞市" /><circle cx="2019.8668" cy="4107.6124" r="5" stroke="black" fill="#fff" alt="浙江省绍兴市越城区" /><circle cx="2034.4136" cy="4058.6994" r="5" stroke="black" fill="#fff" alt="浙江省杭州市萧山区" /><circle cx="2058.2178" cy="4042.6082" r="5" stroke="black" fill="#fff" alt="浙江省杭州市江干区" /></svg><svg xmlns="http://www.w3.org/2000/svg" version="1.1"  width="13000" height="13000"><path d=" M 1593.2026,4117.0648  L 1613.8222,4139.0682  L 1622.9662,4192.9354  L 1639.3958,4198.3078  L 1668.3334,4230.4172  L 1695.8244,4265.0542  L 1708.1396,4264.812  L 1737.15,4257.811  L 1771.6914,4229.0094  L 1811.0316,4272.6418  L 1867.3324,4284.0356  L 1931.0286,4281.399  L 1969.6444,4317.0662  L 1972.4164,4307.3898 " fill="transparent" stroke="#9999CC" stroke-width="5" /><circle cx="1593.2026" cy="4117.0648" r="5" stroke="black" fill="#fff" alt="浙江省温州市瓯海区" /><circle cx="1613.8222" cy="4139.0682" r="5" stroke="black" fill="#fff" alt="浙江省温州市永嘉县" /><circle cx="1622.9662" cy="4192.9354" r="5" stroke="black" fill="#fff" alt="浙江省温州市乐清市" /><circle cx="1639.3958" cy="4198.3078" r="5" stroke="black" fill="#fff" alt="浙江省温州市乐清市" /><circle cx="1668.3334" cy="4230.4172" r="5" stroke="black" fill="#fff" alt="浙江省温州市乐清市" /><circle cx="1695.8244" cy="4265.0542" r="5" stroke="black" fill="#fff" alt="浙江省台州市温岭市" /><circle cx="1708.1396" cy="4264.812" r="5" stroke="black" fill="#fff" alt="浙江省台州市路桥区" /><circle cx="1737.15" cy="4257.811" r="5" stroke="black" fill="#fff" alt="浙江省台州市黄岩区" /><circle cx="1771.6914" cy="4229.0094" r="5" stroke="black" fill="#fff" alt="浙江省台州市临海市" /><circle cx="1811.0316" cy="4272.6418" r="5" stroke="black" fill="#fff" alt="浙江省台州市三门县" /><circle cx="1867.3324" cy="4284.0356" r="5" stroke="black" fill="#fff" alt="浙江省宁波市宁海县" /><circle cx="1931.0286" cy="4281.399" r="5" stroke="black" fill="#fff" alt="浙江省宁波市奉化市" /><circle cx="1969.6444" cy="4317.0662" r="5" stroke="black" fill="#fff" alt="浙江省宁波市鄞州区" /><circle cx="1972.4164" cy="4307.3898" r="5" stroke="black" fill="#fff" alt="浙江省宁波市海曙区" /></svg><svg xmlns="http://www.w3.org/2000/svg" version="1.1"  width="13000" height="13000"><path d=" M 1197.156,3878.0042  L 1238.8792,3913.3046  L 1291.1524,3915.4116  L 1332.1222,3905.2598  L 1366.8238,3943.4566  L 1381.739,4006.645  L 1419.9056,4050.3264  L 1464.8958,4043.3956  L 1505.5732,4082.3746  L 1525.1408,4109.102  L 1556.174,4127.6884  L 1593.2026,4117.0648 " fill="transparent" stroke="#CC0033" stroke-width="5" /><circle cx="1197.156" cy="3878.0042" r="5" stroke="black" fill="#fff" alt="福建省福州市仓山区" /><circle cx="1238.8792" cy="3913.3046" r="5" stroke="black" fill="#fff" alt="福建省福州市连江县" /><circle cx="1291.1524" cy="3915.4116" r="5" stroke="black" fill="#fff" alt="福建省福州市罗源县" /><circle cx="1332.1222" cy="3905.2598" r="5" stroke="black" fill="#fff" alt="福建省宁德市蕉城区" /><circle cx="1366.8238" cy="3943.4566" r="5" stroke="black" fill="#fff" alt="福建省宁德市福安市" /><circle cx="1381.739" cy="4006.645" r="5" stroke="black" fill="#fff" alt="福建省宁德市霞浦县" /><circle cx="1419.9056" cy="4050.3264" r="5" stroke="black" fill="#fff" alt="福建省宁德市福鼎市" /><circle cx="1464.8958" cy="4043.3956" r="5" stroke="black" fill="#fff" alt="福建省宁德市福鼎市" /><circle cx="1505.5732" cy="4082.3746" r="5" stroke="black" fill="#fff" alt="浙江省温州市苍南县" /><circle cx="1525.1408" cy="4109.102" r="5" stroke="black" fill="#fff" alt="浙江省温州市平阳县" /><circle cx="1556.174" cy="4127.6884" r="5" stroke="black" fill="#fff" alt="浙江省温州市瑞安市" /><circle cx="1593.2026" cy="4117.0648" r="5" stroke="black" fill="#fff" alt="浙江省温州市瓯海区" /></svg><svg xmlns="http://www.w3.org/2000/svg" version="1.1"  width="13000" height="13000"><path d=" M 893.5516,3623.262  L 907.4236,3622.935  L 917.9248,3601.6048  L 927.2438,3614.8078  L 958.9064,3691.7418  L 994.6182,3713.6162  L 1011.4542,3742.9656  L 1050.057,3774.354  L 1070.185,3812.8164  L 1098.3728,3835.2032  L 1135.1304,3877.004  L 1197.156,3878.0042  L 1135.1304,3877.004 " fill="transparent" stroke="#669966" stroke-width="5" /><circle cx="893.5516" cy="3623.262" r="5" stroke="black" fill="#fff" alt="福建省厦门市思明区" /><circle cx="907.4236" cy="3622.935" r="5" stroke="black" fill="#fff" alt="福建省厦门市湖里区" /><circle cx="917.9248" cy="3601.6048" r="5" stroke="black" fill="#fff" alt="福建省厦门市集美区" /><circle cx="927.2438" cy="3614.8078" r="5" stroke="black" fill="#fff" alt="福建省厦门市集美区" /><circle cx="958.9064" cy="3691.7418" r="5" stroke="black" fill="#fff" alt="福建省泉州市晋江市" /><circle cx="994.6182" cy="3713.6162" r="5" stroke="black" fill="#fff" alt="福建省泉州市丰泽区" /><circle cx="1011.4542" cy="3742.9656" r="5" stroke="black" fill="#fff" alt="福建省泉州市惠安县" /><circle cx="1050.057" cy="3774.354" r="5" stroke="black" fill="#fff" alt="福建省莆田市仙游县" /><circle cx="1070.185" cy="3812.8164" r="5" stroke="black" fill="#fff" alt="福建省莆田市秀屿区" /><circle cx="1098.3728" cy="3835.2032" r="5" stroke="black" fill="#fff" alt="福建省莆田市涵江区" /><circle cx="1135.1304" cy="3877.004" r="5" stroke="black" fill="#fff" alt="福建省福州市福清市" /><circle cx="1197.156" cy="3878.0042" r="5" stroke="black" fill="#fff" alt="福建省福州市仓山区" /><circle cx="1135.1304" cy="3877.004" r="5" stroke="black" fill="#fff" alt="福建省福州市福清市" /></svg><svg xmlns="http://www.w3.org/2000/svg" version="1.1"  width="13000" height="13000"><path d=" M 2417.2744,3759.333  L 2424.541,3782.6318  L 2429.838,3811.1412  L 2439.5986,3886.534  L 2422.9916,3904.0538  L 2400.4208,3918.5258  L 2365.258,4005.4398  L 2344.5758,4013.5534  L 2334.0028,4040.2524  L 2317.596,4061.2718  L 2299.5614,4078.4414  L 2274.3926,4104.9872  L 2264.8072,4144.6686  L 2268.2354,4142.1426  L 2276.121,4172.3818  L 2270.6508,4190.1714  L 2259.758,4220.8814  L 2262.892,4231.661  L 2238.8474,4264.1752  L 2256.3118,4261.8508  L 2252.5442,4280.5456  L 2249.8904,4291.1072 " fill="transparent" stroke="#CC00CC" stroke-width="5" /><circle cx="2417.2744" cy="3759.333" r="5" stroke="black" fill="#fff" alt="江苏省南京市玄武区" /><circle cx="2424.541" cy="3782.6318" r="5" stroke="black" fill="#fff" alt="江苏省南京市栖霞区" /><circle cx="2429.838" cy="3811.1412" r="5" stroke="black" fill="#fff" alt="江苏省镇江市句容市" /><circle cx="2439.5986" cy="3886.534" r="5" stroke="black" fill="#fff" alt="江苏省镇江市京口区" /><circle cx="2422.9916" cy="3904.0538" r="5" stroke="black" fill="#fff" alt="江苏省镇江市丹徒区" /><circle cx="2400.4208" cy="3918.5258" r="5" stroke="black" fill="#fff" alt="江苏省镇江市丹阳市" /><circle cx="2365.258" cy="4005.4398" r="5" stroke="black" fill="#fff" alt="江苏省常州市天宁区" /><circle cx="2344.5758" cy="4013.5534" r="5" stroke="black" fill="#fff" alt="江苏省常州市戚墅堰区" /><circle cx="2334.0028" cy="4040.2524" r="5" stroke="black" fill="#fff" alt="江苏省无锡市惠山区" /><circle cx="2317.596" cy="4061.2718" r="5" stroke="black" fill="#fff" alt="江苏省无锡市崇安区" /><circle cx="2299.5614" cy="4078.4414" r="5" stroke="black" fill="#fff" alt="江苏省无锡市滨湖区" /><circle cx="2274.3926" cy="4104.9872" r="5" stroke="black" fill="#fff" alt="江苏省苏州市虎丘区" /><circle cx="2264.8072" cy="4144.6686" r="5" stroke="black" fill="#fff" alt="江苏省苏州市苏州工业园区" /><circle cx="2268.2354" cy="4142.1426" r="5" stroke="black" fill="#fff" alt="江苏省苏州市苏州工业园区" /><circle cx="2276.121" cy="4172.3818" r="5" stroke="black" fill="#fff" alt="江苏省苏州市昆山市" /><circle cx="2270.6508" cy="4190.1714" r="5" stroke="black" fill="#fff" alt="江苏省苏州市昆山市" /><circle cx="2259.758" cy="4220.8814" r="5" stroke="black" fill="#fff" alt="江苏省苏州市昆山市" /><circle cx="2262.892" cy="4231.661" r="5" stroke="black" fill="#fff" alt="上海市嘉定区" /><circle cx="2238.8474" cy="4264.1752" r="5" stroke="black" fill="#fff" alt="上海市闵行区" /><circle cx="2256.3118" cy="4261.8508" r="5" stroke="black" fill="#fff" alt="上海市嘉定区" /><circle cx="2252.5442" cy="4280.5456" r="5" stroke="black" fill="#fff" alt="上海市普陀区" /><circle cx="2249.8904" cy="4291.1072" r="5" stroke="black" fill="#fff" alt="上海市闸北区" /></svg><svg xmlns="http://www.w3.org/2000/svg" version="1.1"  width="13000" height="13000"><path d=" M 2588.6942,3475.649  L 2580.3262,3488.3194  L 2529.2434,3430.0096  L 2401.606,3448.952  L 2376.9568,3463.336 " fill="transparent" stroke="#990066" stroke-width="5" /><circle cx="2588.6942" cy="3475.649" r="5" stroke="black" fill="#fff" alt="安徽省蚌埠市龙子湖区" /><circle cx="2580.3262" cy="3488.3194" r="5" stroke="black" fill="#fff" alt="安徽省蚌埠市龙子湖区" /><circle cx="2529.2434" cy="3430.0096" r="5" stroke="black" fill="#fff" alt="安徽省淮南市大通区" /><circle cx="2401.606" cy="3448.952" r="5" stroke="black" fill="#fff" alt="安徽省合肥市北城新区" /><circle cx="2376.9568" cy="3463.336" r="5" stroke="black" fill="#fff" alt="安徽省合肥市瑶海区" /></svg><svg xmlns="http://www.w3.org/2000/svg" version="1.1"  width="13000" height="13000"><path d=" M 3784.4516,4326.6186  L 3803.355,4321.4832  L 3866.0186,4362.5624  L 3931.416,4367.6832  L 4037.588,4418.8696  L 4080.9584,4454.7568  L 4125.0842,4485.4862  L 4182.8858,4531.837  L 4213.7818,4589.8596  L 4256.3758,4633.7996  L 4333.7606,4681.4138  L 4359.0292,4678.7088  L 4363.8764,4687.1892  L 4446.649,4734.4634  L 4509.9384,4783.6968  L 4555.6242,4813.3176  L 4627.7228,4887.6192  L 4694.5692,4963.1656  L 4775.3842,5040.222  L 4782.2834,5064.9074  L 4909.1726,5135.4786  L 5001.5226,5200.6634  L 5085.3712,5254.348  L 5141.4642,5315.3916 " fill="transparent" stroke="#996600" stroke-width="5" /><circle cx="3784.4516" cy="4326.6186" r="5" stroke="black" fill="#fff" alt="辽宁省大连市中山区" /><circle cx="3803.355" cy="4321.4832" r="5" stroke="black" fill="#fff" alt="辽宁省大连市" /><circle cx="3866.0186" cy="4362.5624" r="5" stroke="black" fill="#fff" alt="辽宁省大连市普湾新区" /><circle cx="3931.416" cy="4367.6832" r="5" stroke="black" fill="#fff" alt="辽宁省大连市瓦房店市" /><circle cx="4037.588" cy="4418.8696" r="5" stroke="black" fill="#fff" alt="辽宁省营口市鲅鱼圈区" /><circle cx="4080.9584" cy="4454.7568" r="5" stroke="black" fill="#fff" alt="辽宁省营口市盖州市" /><circle cx="4125.0842" cy="4485.4862" r="5" stroke="black" fill="#fff" alt="辽宁省营口市老边区" /><circle cx="4182.8858" cy="4531.837" r="5" stroke="black" fill="#fff" alt="辽宁省鞍山市海城市" /><circle cx="4213.7818" cy="4589.8596" r="5" stroke="black" fill="#fff" alt="辽宁省鞍山市千山区" /><circle cx="4256.3758" cy="4633.7996" r="5" stroke="black" fill="#fff" alt="辽宁省辽阳市白塔区" /><circle cx="4333.7606" cy="4681.4138" r="5" stroke="black" fill="#fff" alt="辽宁省沈阳市浑南区" /><circle cx="4359.0292" cy="4678.7088" r="5" stroke="black" fill="#fff" alt="辽宁省沈阳市和平区" /><circle cx="4363.8764" cy="4687.1892" r="5" stroke="black" fill="#fff" alt="辽宁省沈阳市沈河区" /><circle cx="4446.649" cy="4734.4634" r="5" stroke="black" fill="#fff" alt="辽宁省铁岭市凡河新城" /><circle cx="4509.9384" cy="4783.6968" r="5" stroke="black" fill="#fff" alt="辽宁省铁岭市开原市" /><circle cx="4555.6242" cy="4813.3176" r="5" stroke="black" fill="#fff" alt="辽宁省铁岭市昌图县" /><circle cx="4627.7228" cy="4887.6192" r="5" stroke="black" fill="#fff" alt="吉林省四平市铁东区" /><circle cx="4694.5692" cy="4963.1656" r="5" stroke="black" fill="#fff" alt="吉林省四平市公主岭市" /><circle cx="4775.3842" cy="5040.222" r="5" stroke="black" fill="#fff" alt="吉林省长春市绿园区" /><circle cx="4782.2834" cy="5064.9074" r="5" stroke="black" fill="#fff" alt="吉林省长春市宽城区" /><circle cx="4909.1726" cy="5135.4786" r="5" stroke="black" fill="#fff" alt="吉林省长春市德惠市" /><circle cx="5001.5226" cy="5200.6634" r="5" stroke="black" fill="#fff" alt="吉林省松原市扶余县" /><circle cx="5085.3712" cy="5254.348" r="5" stroke="black" fill="#fff" alt="黑龙江省哈尔滨市双城市" /><circle cx="5141.4642" cy="5315.3916" r="5" stroke="black" fill="#fff" alt="黑龙江省哈尔滨市南岗区" /></svg><svg xmlns="http://www.w3.org/2000/svg" version="1.1"  width="13000" height="13000"><path d=" M 521.7,2805.745  L 541.5392,2865.4048  L 556.9096,2898.4646  L 568.9186,2958.7938  L 562.517,3025.0564  L 562.1576,3085.8486  L 589.609,3146.6788  L 612.7768,3199.5864  L 653.3716,3239.8648  L 676.1644,3284.476  L 707.8392,3317.5578  L 742.3718,3386.4312  L 742.3158,3435.037  L 778.3574,3472.2538  L 822.7144,3523.798  L 902.3372,3531.6316  L 905.3068,3576.0572  L 927.2438,3614.8078 " fill="transparent" stroke="#CC3300" stroke-width="5" /><circle cx="521.7" cy="2805.745" r="5" stroke="black" fill="#fff" alt="广东省深圳市龙华区" /><circle cx="541.5392" cy="2865.4048" r="5" stroke="black" fill="#fff" alt="广东省深圳市坪山区" /><circle cx="556.9096" cy="2898.4646" r="5" stroke="black" fill="#fff" alt="广东省惠州市惠阳区" /><circle cx="568.9186" cy="2958.7938" r="5" stroke="black" fill="#fff" alt="广东省惠州市惠东县" /><circle cx="562.517" cy="3025.0564" r="5" stroke="black" fill="#fff" alt="广东省汕尾市海丰县" /><circle cx="562.1576" cy="3085.8486" r="5" stroke="black" fill="#fff" alt="广东省汕尾市城区" /><circle cx="589.609" cy="3146.6788" r="5" stroke="black" fill="#fff" alt="广东省汕尾市陆丰市" /><circle cx="612.7768" cy="3199.5864" r="5" stroke="black" fill="#fff" alt="广东省揭阳市惠来县" /><circle cx="653.3716" cy="3239.8648" r="5" stroke="black" fill="#fff" alt="广东省揭阳市普宁市" /><circle cx="676.1644" cy="3284.476" r="5" stroke="black" fill="#fff" alt="广东省汕头市潮阳区" /><circle cx="707.8392" cy="3317.5578" r="5" stroke="black" fill="#fff" alt="广东省潮州市潮安区" /><circle cx="742.3718" cy="3386.4312" r="5" stroke="black" fill="#fff" alt="广东省潮州市饶平县" /><circle cx="742.3158" cy="3435.037" r="5" stroke="black" fill="#fff" alt="福建省漳州市诏安县" /><circle cx="778.3574" cy="3472.2538" r="5" stroke="black" fill="#fff" alt="福建省漳州市云霄县" /><circle cx="822.7144" cy="3523.798" r="5" stroke="black" fill="#fff" alt="福建省漳州市漳浦县" /><circle cx="902.3372" cy="3531.6316" r="5" stroke="black" fill="#fff" alt="福建省漳州市圆山新区" /><circle cx="905.3068" cy="3576.0572" r="5" stroke="black" fill="#fff" alt="福建省漳州市龙海市" /><circle cx="927.2438" cy="3614.8078" r="5" stroke="black" fill="#fff" alt="福建省厦门市集美区" /></svg><svg xmlns="http://www.w3.org/2000/svg" version="1.1"  width="13000" height="13000"><path d=" M 1222.81,3864.1036  L 1257.402,3775.4148  L 1292.4896,3733.0088  L 1318.152,3654.6126  L 1409.706,3655.9858  L 1494.5864,3618.8164  L 1555.5948,3609.0394  L 1645.5374,3609.1792  L 1698.0922,3601.2954  L 1791.5816,3572.055  L 1847.8506,3575.3352  L 1963.0504,3654.4612  L 1984.3312,3682.1794  L 2014.1174,3714.4572  L 2058.4696,3705.964  L 2131.7554,3677.7516  L 2167.1768,3659.5778  L 2202.629,3604.2846  L 2260.7904,3593.8614  L 2323.572,3585.0278  L 2338.0738,3492.3392  L 2359.8426,3458.1708 " fill="transparent" stroke="#CC0066" stroke-width="5" /><circle cx="1222.81" cy="3864.1036" r="5" stroke="black" fill="#fff" alt="福建省福州市晋安区" /><circle cx="1257.402" cy="3775.4148" r="5" stroke="black" fill="#fff" alt="福建省福州市闽清县" /><circle cx="1292.4896" cy="3733.0088" r="5" stroke="black" fill="#fff" alt="福建省宁德市古田县" /><circle cx="1318.152" cy="3654.6126" r="5" stroke="black" fill="#fff" alt="福建省南平市延平区" /><circle cx="1409.706" cy="3655.9858" r="5" stroke="black" fill="#fff" alt="福建省南平市建瓯市" /><circle cx="1494.5864" cy="3618.8164" r="5" stroke="black" fill="#fff" alt="福建省南平市建阳市" /><circle cx="1555.5948" cy="3609.0394" r="5" stroke="black" fill="#fff" alt="福建省南平市武夷山市" /><circle cx="1645.5374" cy="3609.1792" r="5" stroke="black" fill="#fff" alt="江西省上饶市上饶县" /><circle cx="1698.0922" cy="3601.2954" r="5" stroke="black" fill="#fff" alt="江西省上饶市信州区" /><circle cx="1791.5816" cy="3572.055" r="5" stroke="black" fill="#fff" alt="江西省上饶市德兴市" /><circle cx="1847.8506" cy="3575.3352" r="5" stroke="black" fill="#fff" alt="江西省上饶市婺源县" /><circle cx="1963.0504" cy="3654.4612" r="5" stroke="black" fill="#fff" alt="安徽省黄山市徽州区" /><circle cx="1984.3312" cy="3682.1794" r="5" stroke="black" fill="#fff" alt="安徽省黄山市歙县" /><circle cx="2014.1174" cy="3714.4572" r="5" stroke="black" fill="#fff" alt="安徽省宣城市绩溪县" /><circle cx="2058.4696" cy="3705.964" r="5" stroke="black" fill="#fff" alt="安徽省宣城市旌德县" /><circle cx="2131.7554" cy="3677.7516" r="5" stroke="black" fill="#fff" alt="安徽省宣城市泾县" /><circle cx="2167.1768" cy="3659.5778" r="5" stroke="black" fill="#fff" alt="安徽省芜湖市南陵县" /><circle cx="2202.629" cy="3604.2846" r="5" stroke="black" fill="#fff" alt="安徽省铜陵市义安区" /><circle cx="2260.7904" cy="3593.8614" r="5" stroke="black" fill="#fff" alt="安徽省芜湖市无为县" /><circle cx="2323.572" cy="3585.0278" r="5" stroke="black" fill="#fff" alt="安徽省合肥市巢湖市" /><circle cx="2338.0738" cy="3492.3392" r="5" stroke="black" fill="#fff" alt="安徽省合肥市肥东县" /><circle cx="2359.8426" cy="3458.1708" r="5" stroke="black" fill="#fff" alt="安徽省合肥市包河区" /></svg><svg xmlns="http://www.w3.org/2000/svg" version="1.1"  width="13000" height="13000"><path d=" M 1909.9494,1309.5338  L 1910.8356,1292.2478  L 1900.7738,1244.8216  L 1871.2234,1185.4752  L 1884.1998,1149.146  L 1886.6628,1127.2668  L 1893.1096,1058.1436  L 1921.9066,1016.9908  L 1959.4066,974.5974  L 2025.0288,936.3904  L 2070.7308,903.6118  L 2125.772,828.325 " fill="transparent" stroke="#999966" stroke-width="5" /><circle cx="1909.9494" cy="1309.5338" r="5" stroke="black" fill="#fff" alt="重庆市渝中区" /><circle cx="1910.8356" cy="1292.2478" r="5" stroke="black" fill="#fff" alt="重庆市沙坪坝区" /><circle cx="1900.7738" cy="1244.8216" r="5" stroke="black" fill="#fff" alt="重庆市璧山县" /><circle cx="1871.2234" cy="1185.4752" r="5" stroke="black" fill="#fff" alt="重庆市永川市" /><circle cx="1884.1998" cy="1149.146" r="5" stroke="black" fill="#fff" alt="重庆市大足县" /><circle cx="1886.6628" cy="1127.2668" r="5" stroke="black" fill="#fff" alt="重庆市荣昌县" /><circle cx="1893.1096" cy="1058.1436" r="5" stroke="black" fill="#fff" alt="四川省内江市隆昌县" /><circle cx="1921.9066" cy="1016.9908" r="5" stroke="black" fill="#fff" alt="四川省内江市东兴区" /><circle cx="1959.4066" cy="974.5974" r="5" stroke="black" fill="#fff" alt="四川省内江市资中县" /><circle cx="2025.0288" cy="936.3904" r="5" stroke="black" fill="#fff" alt="四川省资阳市雁江区" /><circle cx="2070.7308" cy="903.6118" r="5" stroke="black" fill="#fff" alt="四川省资阳市简阳市" /><circle cx="2125.772" cy="828.325" r="5" stroke="black" fill="#fff" alt="四川省成都市成华区" /></svg><svg xmlns="http://www.w3.org/2000/svg" version="1.1"  width="13000" height="13000"><path d=" M 2853.4782,3460.7062  L 2847.289,3388.3056  L 2843.2376,3304.0718  L 2877.3804,3260.6144  L 2889.238,3131.6116  L 2931.958,3036.0842  L 2954.4394,2964.8906  L 2967.9062,2852.3426  L 2951.8924,2755.7702 " fill="transparent" stroke="#9966FF" stroke-width="5" /><circle cx="2853.4782" cy="3460.7062" r="5" stroke="black" fill="#fff" alt="江苏省徐州市鼓楼区" /><circle cx="2847.289" cy="3388.3056" r="5" stroke="black" fill="#fff" alt="安徽省宿州市萧县" /><circle cx="2843.2376" cy="3304.0718" r="5" stroke="black" fill="#fff" alt="河南省商丘市永城市" /><circle cx="2877.3804" cy="3260.6144" r="5" stroke="black" fill="#fff" alt="安徽省宿州市砀山县" /><circle cx="2889.238" cy="3131.6116" r="5" stroke="black" fill="#fff" alt="河南省商丘市粱园区" /><circle cx="2931.958" cy="3036.0842" r="5" stroke="black" fill="#fff" alt="河南省商丘市民权县" /><circle cx="2954.4394" cy="2964.8906" r="5" stroke="black" fill="#fff" alt="河南省开封市兰考县" /><circle cx="2967.9062" cy="2852.3426" r="5" stroke="black" fill="#fff" alt="河南省开封市龙亭区" /><circle cx="2951.8924" cy="2755.7702" r="5" stroke="black" fill="#fff" alt="河南省郑州市金水区" /></svg></svg>