<svg xmlns="http://www.w3.org/2000/svg" version="1.1"  width="13000" height="13000"><path d=" M 3990.46363143,11640.71136987  L 3953.77692594,11668.37386605  L 3908.49967352,11719.9430861  L 3830.42892137,11683.87317567  L 3743.53813642,11635.93035485  L 3667.65405184,11701.85393829  L 3619.99530011,11708.83544366  L 3558.08254088,11698.64747551  L 3511.33701351,11716.59516335  L 3481.06352499,11732.19779756  L 3420.43945551,11728.57649205  L 3364.61116319,11696.39193184  L 3291.55806299,11738.92693496  L 3252.98670313,11769.85773975  L 3230.18090129,11831.68231607  L 3205.83632758,11879.64469824  L 3218.95908283,11942.49933076  L 3200.94797845,11960.69239762  L 3181.06918319,11997.36468219  L 3149.09565458,12031.23795361  L 3129.83194973,12058.31906603  L 3138.47894867,12098.17977564  L 3123.03122784,12147.3562309 " fill="transparent" stroke="#336666" stroke-width="2" /><circle cx="3990.46363143" cy="11640.71136987" r="3" stroke="black" fill="#fff" id="beijing" alt="beijing" /><circle cx="3953.77692594" cy="11668.37386605" r="3" stroke="black" fill="#fff" id="langfang" alt="langfang" /><circle cx="3908.49967352" cy="11719.9430861" r="3" stroke="black" fill="#fff" id="tianjin" alt="tianjin" /><circle cx="3830.42892137" cy="11683.87317567" r="3" stroke="black" fill="#fff" id="cangzhou" alt="cangzhou" /><circle cx="3743.53813642" cy="11635.93035485" r="3" stroke="black" fill="#fff" id="dezhou" alt="dezhou" /><circle cx="3667.65405184" cy="11701.85393829" r="3" stroke="black" fill="#fff" id="jinan" alt="jinan" /><circle cx="3619.99530011" cy="11708.83544366" r="3" stroke="black" fill="#fff" id="taian" alt="taian" /><circle cx="3558.08254088" cy="11698.64747551" r="3" stroke="black" fill="#fff" id="qubu" alt="qubu" /><circle cx="3511.33701351" cy="11716.59516335" r="3" stroke="black" fill="#fff" id="tengzhou" alt="tengzhou" /><circle cx="3481.06352499" cy="11732.19779756" r="3" stroke="black" fill="#fff" id="zaozhuang" alt="zaozhuang" /><circle cx="3420.43945551" cy="11728.57649205" r="3" stroke="black" fill="#fff" id="xuzhou" alt="xuzhou" /><circle cx="3364.61116319" cy="11696.39193184" r="3" stroke="black" fill="#fff" id="suzhou-h" alt="suzhou-h" /><circle cx="3291.55806299" cy="11738.92693496" r="3" stroke="black" fill="#fff" id="bengbu" alt="bengbu" /><circle cx="3252.98670313" cy="11769.85773975" r="3" stroke="black" fill="#fff" id="dingyuan" alt="dingyuan" /><circle cx="3230.18090129" cy="11831.68231607" r="3" stroke="black" fill="#fff" id="chuzhou" alt="chuzhou" /><circle cx="3205.83632758" cy="11879.64469824" r="3" stroke="black" fill="#fff" id="nanjing" alt="nanjing" /><circle cx="3218.95908283" cy="11942.49933076" r="3" stroke="black" fill="#fff" id="zhenjiang" alt="zhenjiang" /><circle cx="3200.94797845" cy="11960.69239762" r="3" stroke="black" fill="#fff" id="danyang" alt="danyang" /><circle cx="3181.06918319" cy="11997.36468219" r="3" stroke="black" fill="#fff" id="changzhou" alt="changzhou" /><circle cx="3149.09565458" cy="12031.23795361" r="3" stroke="black" fill="#fff" id="wuxi" alt="wuxi" /><circle cx="3129.83194973" cy="12058.31906603" r="3" stroke="black" fill="#fff" id="suzhou" alt="suzhou" /><circle cx="3138.47894867" cy="12098.17977564" r="3" stroke="black" fill="#fff" id="kunshan" alt="kunshan" /><circle cx="3123.03122784" cy="12147.3562309" r="3" stroke="black" fill="#fff" id="shanghai" alt="shanghai" /></svg>